<?xml version="1.0" encoding="utf-8"?>
<!-- Generator: Adobe Illustrator 25.0.0, SVG Export Plug-In . SVG Version: 6.00 Build 0)  -->
<svg version="1.1" id="Слой_1" xmlns="http://www.w3.org/2000/svg" xmlns:xlink="http://www.w3.org/1999/xlink" x="0px" y="0px"
	 viewBox="0 0 141.7 141.7" style="enable-background:new 0 0 141.7 141.7;" xml:space="preserve">
<g>
	<path d="M117.3,57.6c-3,4.1-7.6,2.3-10.8,4.8c-1.6,1.2-2.8,0-2.9-2c-0.1-2.1-1.2-5.7-2.4-4.7c-2.7,2.2-7-0.4-8.7,3.5
		c-0.5,1.2-1.1,2.5-1.9,3.5c-1.5,1.9-3.6,2.8-6,1.8c-1.5-0.6-4.3-1.6-3.1-3.1c1.8-2.3-3.1-6.6,2.4-7.2c2.2-0.2,2.7-1.9,2-3.2
		c-2.2-4.3,1.8-5,3.2-7.4c3-5.2,6.7-5.3,11.5-5.5c2.3-0.1,4.7-1.7,4.6-4.9c-0.1-2.1,0.5-4.6-2.7-5.1c-1.7,2,2.2,5.2-1,6
		c-3.5,0.8-7.5,0.8-11,0.1c-2-0.4-0.9-2.9,0-4.3c4-6.1,4.1-8.1-5.2-10.4c-2.4-0.6-4.8-0.9-7.2-1.4c-2.5-0.5-4.1-0.3-5,2.8
		c-1.5,5.3-7.3,5.1-11.3,7.2c1.4-3,5-2.9,7.1-4.8c1.5-1.3,3.3-2.3,2.7-4.4c-0.7-2.2-2.9-1.4-4.5-1.2c-4.6,0.5-10.4-1-11.4,6.1
		c-2.3-0.7-0.7-2.4-1.3-3.3c-2.7-3.8-2.7-3.9,1.9-5c28.4-6.5,58.2,8.3,69.8,34.6c12.1,27.7,3.1,59.5-21.6,76.2
		c-0.9,0.6-1.9,1.2-2.9,1.7c-0.9,0.4-1.9,0.7-2.6-0.2c-0.7-1-0.2-1.9,0.6-2.4c2.5-1.5,1.8-3.3,0.9-5.3c-0.4-1-1-2.7-0.5-3.2
		c4.7-5-2-9.1-1-13.9c0.5-2.2-5.7-4.1-8.4-2.9c-6.2,3-15.3-0.9-16.9-7.3c-1.4-5.5,3.5-15.5,6.9-19.9c4.7-6.1,11-6.3,17.3-7.5
		c2.7-0.5,4.6,0.1,6.2,2.6c3.1,4.8,10.2,6.4,14.8,3.7c1.8-1.1,2.5-2.7,0.9-4.7C116.3,62.4,116.3,62.4,117.3,57.6z M125.2,88.5
		c2.5-4.3,3.1-8.8,2.5-13.4c-0.2-1.3-2.1-3.6-2-3.6c4.4-3.1,0.7-6.7,0.7-10c0-1.6-0.1-4.1-2.8-4.2c-2.4-0.1-3.8,1.4-4.8,3.4
		c-1,2.1-0.4,3.4,1.8,4.4c2.4,1.1,2,3.4,1.6,5.4c-0.4,1.9-1.6,2.7-3.5,3c-6.3,1-12.5,2.1-16.2-5.3c-0.9-1.8-2.8-1.6-4.5-1.2
		c-2,0.5-4,1.2-6,1.3c-7.4,0.5-10.6,6.7-15.1,11.1c-1,1-0.7,2.4-0.2,3.8c0.6,1.8,0.7,3.8-0.1,5.5c-2.2,4.8,1.2,6.8,4.2,9.2
		c2.9,2.3,6,3.5,9.1,0.5c1.8-1.8,3.5-1.6,5.6-0.6c5.8,2.7,9.2,10.5,7.1,17.2c-0.8,2.4-0.8,4.9,1.1,6.2c1.8,1.2,3.3-1.1,4.7-2.3
		c7.2-6.3,12.6-13.9,16-22.9c0.5-1.4,1.9-3.1,0.8-4.2c-4.1-4.1-1.3-9.5-3.6-13.8c0.5-0.1,0.9-0.2,1.4-0.3
		C123.6,81.2,124.4,84.9,125.2,88.5z M107.8,31.6c-1,6.3-4.7,8.5-10,8.5c-2.3,0-3.7,0.9-5.3,2.6c-2.8,3.2-6.9,5.6-4.9,10.9
		c0.4,1-0.4,2.2-1.8,2.4c-3.2,0.6-1.9,3.2-2.1,5c-0.1,1.3,1.2,1.7,2.4,1.8c2.4,0.2,3.2-1.5,4-3.2c1.3-2.7,1.6-6.7,6.4-4.2
		c0.5,0.2,1.8-0.6,2.4-1.2c2.3-2.3,3.5-0.3,5.1,1c1.5,1.2,0.7,3.4,2.2,4.7c2.5-3.5-0.9-5.6-1.8-8.7c2.7,1.3,4.1,2.7,4.4,5
		c0.2,1.8,1.3,2.7,3,2.6c3.9-0.2,9.9-10.3,8-13.6C116.8,40.3,113.2,35.7,107.8,31.6z M100.7,32.5c-1.1-4.1-0.1-8.7-4.2-8.3
		c-2.9,0.2-4.9,4.8-4.6,7.3c0.5,3.5,4.6-1,6.8,1.4C99.7,33.8,100.8,32.5,100.7,32.5z"/>
	<path d="M18.9,71.5c0.7-1.2,0.2-2.7-0.1-4.1c-0.9-4,1-6.1,4.7-5.3c2.9,0.6,4.4-0.3,5.8-3.7c0.5,5.1-1.6,6.5-4.9,5.8
		c-3.9-0.8-4.4,0.7-3.6,3.9c0.2,1.1,0.3,2.2,0.3,3.4c0,1.7-0.9,3.1-2.5,3.3c-1.4,0.1-2.2-1.2-2.5-2.6c-0.3-1.4,0-3.6-2.2-3.2
		c-1.8,0.3-1.5,2.5-1.3,3.9c0.3,3.1-2,7.5,3.8,8.3c1.6,0.2,1.3,2.5,0.8,3.9c-0.6,2-1.4,3.9-1.7,5.9c-0.9,4.7,2,8.2,6.3,9.4
		c5.7,1.7,11.2,3.8,15.6,8.6c3.2,3.5,8.7,3.7,12.9,6.3c4,2.5,4.7,4,2.4,7.8c-3.5,5.8-2.8,7.1,4,8.6c6.5,1.4,13.1,1.6,19.7,1.2
		c1.4-0.1,3.5-0.7,3.6,1.5c0,2-2.1,1.7-3.5,2C34,142.4-2.3,97.7,11.8,56.7c0.9-2.7,1.9-5.3,3.1-7.9c0.6-1.2,1.2-3.3,3.1-2.6
		c2.1,0.8,0.7,2.5,0.1,3.8C15.2,57.3,10.3,64.5,18.9,71.5z M52.5,119.9c-0.1-1.7-1.2-2.1-2.4-2.9c-4.1-2.5-9.6-3.3-12.8-6.2
		c-3.6-3.2-8-4.4-11.7-7.2c-1.1-0.9-3.6-2.6-5.1-0.9c-1.4,1.7,0.7,3.4,1.7,4.9c5.1,7.6,11.7,13.7,19.7,18.2c1.9,1.1,4.6,3.4,6,2.1
		C50.1,126,51.1,122.6,52.5,119.9z"/>
	<path d="M102.5,136.4c-16.9-0.6-32.3-12.6-44.8-29.1c-8.9-11.9-15.3-25.1-18.9-39.5c-0.3-1.1-0.5-2.2-0.6-3.3c-0.2-1.6-1.2-4,1-4.3
		c2.3-0.4,2,2.2,2.3,3.7c6.2,25.3,18.1,47,40.5,61.7c8.6,5.6,18.2,8,28.5,7.5c12.1-0.5,18.2-7.5,17.1-19.5c-0.1-1.5-1.5-3.9,1-4.2
		c2.1-0.3,2.1,2.2,2.4,3.8C133.7,127.1,123.9,136.8,102.5,136.4z"/>
	<path d="M35.2,27.5c-0.1,5.3-0.3,10.6,1,15.7c0.7,2.5,0.2,4.6-1.9,6c-2.3,1.5,3.7,2.3,0.3,3.7c-1.3,0.5-3,1.6-4.2,0.2
		c-1.1-1.3,0.2-2.4,1.1-3.4c1.2-1.4,3-2.4,3.2-4.5c0.7-5.9-1.8-8.2-7.6-7.1c-1.5,0.3-2.9,0.7-4.4,0.8c-1.6,0.1-3.7,2.3-4.8-0.6
		c-0.8-2.3,0.7-3.8,2.6-5c3-1.9,5.9-4.2,9-5.9c3-1.7,4.2-3.9,4-7.3c-0.2-3.5-0.3-7.2,2-10.3c2.8-3.7,6.1-3.6,8.5,0.5
		c1.7,2.9,1.6,6.2,1.4,9.4c-0.3,3.7,1,6,4.2,7.8c3.3,1.8,6.2,4.2,9.4,6.2c1.9,1.2,2.6,2.8,2,4.8c-0.8,2.8-2.8,0.8-4.2,0.6
		c-1.5-0.1-3-0.7-4.4-0.8c-2.4-0.1-5.6-2.7-6.9,0.9c-1.1,3.1-2.5,6.9,1.3,9.8c1.3,1,3.1,2.5,1.5,4.2c-1.3,1.3-3.1,0.1-4.6-0.7
		c3.6-3.2-2.1-5-1.1-8.3c2.6-8.6,1.1-17.6,1.4-26.4c0-0.8,0-1.5-0.1-2.3c-0.5-2.8-1.1-6.3-4.5-6.3c-3.4,0.1-4,3.6-4.2,6.4
		C35,19.6,35.2,23.6,35.2,27.5z M18.8,37.1c11.6,1.1,15.7-1.9,13.5-9.2C27.9,30.4,23.5,33.1,18.8,37.1z M60.1,37.3
		c-3.3-3.6-6.9-5.5-10.3-7.6C48.6,29,47,26.3,45.8,29c-0.8,1.8-1.4,5,1.2,6C50.8,36.5,54.9,38.1,60.1,37.3z"/>
	<path d="M81.1,33.2c2.3,2.6,2.8,5.1,4.9,6.4c0.9,0.5,1.4,1.4,0.6,2.3c-0.5,0.5-1.3,0.9-2,1c-1.6,0.1-0.9-1.3-1-2
		C83.1,38.6,80.3,37.2,81.1,33.2z"/>
</g>
</svg>
