<?xml version="1.0" encoding="utf-8"?>
<!-- Generator: Adobe Illustrator 25.0.0, SVG Export Plug-In . SVG Version: 6.00 Build 0)  -->
<svg version="1.1" id="Слой_1" xmlns="http://www.w3.org/2000/svg" xmlns:xlink="http://www.w3.org/1999/xlink" x="0px" y="0px"
	 viewBox="0 0 141.7 141.7" style="enable-background:new 0 0 141.7 141.7;" xml:space="preserve">
<g>
	<path d="M51.2,11.8c3.8,4,8.3,4.6,13.8,4.7c18,0.4,36,1.8,54,3.2c6.5,0.5,9.9,6.8,7.1,12.7c-1,2.2-1.1,3.5,0.6,5.5
		c3,3.4,3.2,7.5,1.4,11.5c-1,2.3-1.1,3.4,1,5.2c4.7,4,5.3,9.5,1.5,14.4c-1.6,2.1-1.3,3.1,0.1,4.9c2.8,3.5,3.1,7.6,1.1,11.5
		s-5.5,5.3-9.8,5.3c-10.7-0.1-21.3,0-32,0c-5.6,0-5.6,0-4.3,5.7c1.4,5.9,3.1,11.7,4.3,17.7c1.4,7-3,13.6-9.8,15.5
		c-3.4,1-5.8,0.5-7.4-3.3c-5-11.6-10.4-23-15.5-34.5c-1.1-2.5-2.1-4-4.9-2c-1.5,1-3.4,1-5.3,0.9c-10,0-20-0.1-30,0
		c-4.4,0.1-6.2-1.7-6.2-6.1c0.1-22.1,0.1-44.2,0-66.4c0-2.7,0.9-4.7,2.8-6.4C26.3,11.8,38.7,11.8,51.2,11.8z M58.2,53.1
		c0,8.7,0.2,17.4-0.1,26c-0.1,3.6,0.7,6.7,2.1,9.9c5,10.7,9.7,21.5,14.7,32.2c0.8,1.7,0.7,4.7,3.6,4.6c2.5-0.1,4.5-1.8,6-3.9
		c1.7-2.6,2.1-5.4,1.3-8.4c-1.5-5.7-2.8-11.4-4.2-17.2c-0.7-3-0.9-6.4-5.5-5.7c-1,0.2-1.9-0.6-1.9-1.8c0-1.1,0.9-1.8,1.9-1.9
		c1.3-0.1,2.6-0.1,3.9-0.1c13.9,0,27.9,0.1,41.8,0c5.9,0,8.9-4.7,6.3-9.5c-1.4-2.6-3.9-3.2-6.5-3.8c-1.6-0.4-4.3,0.1-4.1-2.5
		c0.2-2.5,2.7-1.7,4.4-1.9c0.3,0,0.7,0,1-0.1c3.3-0.5,5.5-2.3,5.9-5.6c0.4-3.5-1.3-6-4.7-7.1c-1.1-0.4-2.2-0.5-3.4-0.7
		c-1.4-0.3-3.3-0.2-3.2-2.2c0-1.7,1.6-1.7,2.9-2.1c4.4-1.3,5.2-4.7,4.4-8.6c-0.7-3.2-3.4-4.2-6.2-4.8c-1.3-0.3-2.9-0.4-3-2
		s1.3-2,2.7-2.2c3.3-0.5,5.1-2.4,4.7-5.7c-0.4-3.4-2.9-4.4-6-4.6c-6.5-0.4-13.1-1-19.6-1.3c-11.6-0.5-23.2-1.9-34.8-1.7
		c-3.3,0.1-4.5,1.3-4.4,4.7C58.4,34.4,58.2,43.8,58.2,53.1z M14.9,51.3c0,10.5,0.1,20.9,0,31.4c0,2.7,0.4,4.2,3.7,4.1
		c9.6-0.2,19.3,0,29-0.1c4.8-0.1,6.7-2.1,6.8-7c0.1-18.8,0.1-37.6,0-56.4c0-5.1-2.1-7.2-7.1-7.3c-9.5-0.1-19,0.1-28.5-0.1
		c-3.1-0.1-3.9,1.1-3.8,4C15,30.4,14.9,40.8,14.9,51.3z"/>
	<path d="M46.4,73.1c-0.4,3.6-2.3,5.7-6,5.6c-3.4-0.1-5.5-2.2-5.6-5.5c-0.1-3.6,2.1-5.9,5.7-6C44.1,67.2,46,69.5,46.4,73.1z
		 M40.4,75.4c1.6,0,2.5-0.8,2.5-2.4c0-1.3-0.7-2.2-2.1-2.3c-1.6-0.1-2.5,0.8-2.5,2.3C38.3,74.4,39.1,75.2,40.4,75.4z"/>
	<path d="M23,23.8c-1.5-0.2-3.7,0.4-3.7-1.9c0-2.2,2.1-2,3.6-2c1.6,0,3.6-0.1,3.5,2.2C26.3,24.1,24.4,23.7,23,23.8z"/>
	<path d="M23,33.7c-1.5-0.2-3.7,0.4-3.7-1.9c0-2.2,2.1-2,3.6-2c1.6,0,3.6-0.1,3.5,2.2C26.3,33.9,24.4,33.5,23,33.7z"/>
	<path d="M22.8,43.5c-1.5-0.1-3.5,0.1-3.5-1.7c0-2.6,2.3-2.1,4-2.2c1.5,0,3.3,0,3.1,2C26.3,44,24.2,43.3,22.8,43.5z"/>
	<path d="M23,53.3c-1.5-0.2-3.7,0.4-3.7-2c0-2.2,2.1-1.9,3.7-1.9c1.4,0,3.3-0.1,3.4,1.8C26.6,53.6,24.4,53.1,23,53.3z"/>
	<path d="M22.8,63.2c-1.5-0.1-3.5,0.1-3.5-1.7c0-2.6,2.3-2.1,4-2.2c1.5,0,3.3,0,3.1,2C26.3,63.6,24.2,63,22.8,63.2z"/>
	<path d="M23.2,73c-1.7-0.2-3.9,0.4-3.9-1.9c0-2.2,2.1-2,3.6-2c1.6,0,3.6-0.1,3.5,2.2C26.3,73.3,24.4,72.8,23.2,73z"/>
	<path d="M22.8,78.9c1.5,0.1,3.5-0.3,3.6,2c0.1,2.1-1.8,1.9-3.2,1.9c-1.5,0-3.7,0.5-3.9-1.7C19.1,78.9,21.1,79,22.8,78.9z"/>
</g>
</svg>
