<?xml version="1.0" encoding="utf-8"?>
<!-- Generator: Adobe Illustrator 25.0.0, SVG Export Plug-In . SVG Version: 6.00 Build 0)  -->
<svg version="1.1" id="Слой_1" xmlns="http://www.w3.org/2000/svg" xmlns:xlink="http://www.w3.org/1999/xlink" x="0px" y="0px"
	 viewBox="0 0 141.7 141.7" style="enable-background:new 0 0 141.7 141.7;" xml:space="preserve">
<g id="wwdVdd.tif">
	<g>
		<path d="M79.7,7.8c10.5,5.9,12.1,9.8,9.1,21.6c-1.2,4.8-2.2,9.6-3.6,14.3c-0.9,3,0,3.7,2.9,3.7c10.7-0.1,21.3,0,32-0.1
			c4.7,0,9,0.5,11.5,5c2.5,4.5,1.9,8.9-1.5,12.7c-1.4,1.6-0.6,2.4,0.3,3.7c4,5.8,3.5,10.5-1.7,15.1c-1.5,1.3-1.9,2.1-1,4
			c2.3,4.7,2.1,9.3-1.7,13.1c-1.3,1.4-1,2.3-0.3,3.8c3.3,7.4,0.1,13.3-8.2,13.7c-19.5,1-38.8,3.6-58.4,2.7c-1,0-2-0.2-2.7,0.7
			c-3.2,4.3-7.8,4.1-12.5,4.1c-9-0.1-18-0.1-27,0c-4.2,0.1-5.9-1.7-5.9-5.9c0.1-22.3,0.1-44.6,0-66.9c0-4.1,1.7-6,5.9-6
			c10.2,0.1,20.3,0,30.5,0c1,0,2.2-0.2,2.9,0.3c5.7,3.8,6.8-0.5,8.6-4.5c5.2-11.8,10.6-23.6,16-35.3C76.4,7.8,78.1,7.8,79.7,7.8z
			 M89.2,116.7c0-0.1,0-0.1,0-0.2c9-0.5,18-1,27-1.6c3.3-0.2,6.5-0.8,6.8-4.8c0.3-3.6-2-5.3-5.3-5.7c-1.1-0.1-2-0.6-2.1-1.7
			c-0.1-1.4,1-1.9,2.2-2.2c1.1-0.3,2.2-0.5,3.3-0.9c2.6-0.9,3.9-2.9,4-5.6c0.1-2.8-0.7-5.1-3.3-6.6c-1.4-0.8-4.3-0.1-4.1-2.6
			c0.2-2.7,3-1.8,4.8-2.4c0.8-0.3,1.6-0.3,2.4-0.6c2.7-1.1,4.2-3.1,4.2-6c0-3.1-1.8-5-4.6-6.3c-2.2-1-6.5,1.3-6.5-2.2
			c0-3.4,4.5-1.9,6.9-3.1c3.1-1.4,4.5-3.7,4.2-7c-0.3-3.4-2.4-5.3-5.7-5.6c-1.3-0.1-2.6-0.1-3.9-0.1c-13.6,0-27.2,0-40.8,0
			c-1.6,0-3.8,0.5-4.1-1.6c-0.4-2.3,1.8-2.4,3.4-2.3c2.1,0.1,2.8-0.9,3.2-2.8c1.6-6.9,3.4-13.7,5-20.5c1-4.5-0.6-8.1-4.4-10.6
			c-2.7-1.8-4.5-1.6-6,1.8c-5.4,12.3-11,24.5-16.6,36.7c-0.6,1.4-1,2.7-0.9,4.2c0.1,18.8,0.2,37.7,0,56.5c0,4.1,1.6,5.3,5.1,5.1
			C71.9,117.5,80.5,117.1,89.2,116.7z M14.9,86.3c0,10.6,0.1,21.3-0.1,31.9c0,3,0.9,4,3.9,3.9c9.5-0.2,19,0,28.5-0.1
			c5.1,0,7-2,7.1-7.3c0.1-18.6,0.1-37.3,0-55.9c0-5.6-2.1-7.6-7.8-7.6c-9.2-0.1-18.3,0.1-27.5-0.1c-3.3-0.1-4.2,1.1-4.1,4.2
			C15,65.7,14.9,76,14.9,86.3z"/>
		<path d="M46.4,108.4c-0.4,3.6-2.3,5.8-6,5.7c-3.4-0.1-5.5-2.2-5.6-5.5c-0.1-3.6,2.1-5.9,5.7-6C44.1,102.5,46,104.9,46.4,108.4z
			 M43,108.5c-0.1-1.5-0.9-2.4-2.4-2.4c-1.3,0-2.1,0.7-2.3,2c-0.2,1.5,0.6,2.5,2.1,2.7C41.9,110.9,42.7,109.9,43,108.5z"/>
		<path d="M23.2,55.2c1.4,0.1,3.3,0,3.2,2c-0.1,2.7-2.5,1.8-4.1,1.9c-1.4,0.1-3.3,0-3-2.1C19.6,54.9,21.6,55.3,23.2,55.2z"/>
		<path d="M22.8,65.1c1.5,0.1,3.5-0.3,3.6,2c0.1,2.1-1.8,1.9-3.2,1.9c-1.5,0-3.7,0.5-3.9-1.7C19.1,65.1,21.1,65.1,22.8,65.1z"/>
		<path d="M22.9,74.9c1.6,0.1,3.5-0.1,3.5,1.9c0,2.4-2,2-3.6,2c-1.5,0-3.7,0.3-3.5-2C19.4,74.6,21.6,75,22.9,74.9z"/>
		<path d="M23,88.7c-1.8-0.1-3.7,0.1-3.7-1.7c0-2.6,2.3-2.1,4-2.2c1.5,0,3.2,0,3.1,2C26.3,89.2,24.1,88.4,23,88.7z"/>
		<path d="M23,98.5c-1.8-0.1-3.7,0.1-3.7-1.7c0-2.6,2.3-2.1,4-2.2c1.5,0,3.2,0,3.1,2C26.3,99,24.1,98.2,23,98.5z"/>
		<path d="M22.9,104.4c1.6,0.1,3.5-0.1,3.5,1.9c0,2.4-2,2-3.6,2c-1.5,0-3.7,0.3-3.5-2C19.4,104.1,21.6,104.5,22.9,104.4z"/>
		<path d="M22.8,118.2c-1.5-0.1-3.5,0.1-3.5-1.7c0-2.6,2.3-2.1,4-2.2c1.5,0,3.3,0,3.1,2C26.3,118.6,24.2,118,22.8,118.2z"/>
	</g>
</g>
</svg>
