<?xml version="1.0" encoding="utf-8"?>
<!-- Generator: Adobe Illustrator 25.0.0, SVG Export Plug-In . SVG Version: 6.00 Build 0)  -->
<svg version="1.1" id="Слой_1" xmlns="http://www.w3.org/2000/svg" xmlns:xlink="http://www.w3.org/1999/xlink" x="0px" y="0px"
	 viewBox="0 0 141.7 141.7" style="enable-background:new 0 0 141.7 141.7;" xml:space="preserve">
<path d="M111,82.3c-0.5,7.6-1,15.2-1.4,22.8c-0.3,5.5-3.2,7.9-8.7,7.5c-8-0.5-16.1-0.8-24.1-0.9c-1.6,0-4.3-1.5-4.8,1.2
	c-0.5,2.2,1.5,3.8,3.1,5.2c1.7,1.5,6.3,0.6,5.1,4.2c-1.2,3.6-5.1,1.7-7.9,1.6c-8.5-0.2-16.9-0.6-25.4-1c-2.2-0.1-5.3,0.3-5.8-2.7
	c-0.5-3.2,2.7-2.5,4.5-3.1c2.6-0.9,5-2.5,4.5-5.3c-0.5-2.6-3.5-1.7-5.5-1.8c-7.4-0.4-14.8-0.6-22.2-0.9c-7.4-0.3-9.9-3.1-9.5-10.4
	c0.8-18.4,1.7-36.8,2.6-55.3c0.4-9.3,2.2-10.9,11.7-10.7c5.3,0.1,10.6,0.2,15.9,0.4c2,0.1,4.1,0.8,4,3.2c-0.1,3.2-2.8,1.8-4.4,1.8
	c-5.5,0-11-0.1-16.5-0.4c-3.7-0.2-5.5,1.1-5.6,4.9c-0.4,13.8-0.9,27.5-1.6,41.3c-0.2,3.6,1.2,4.7,4.7,4.8c25.8,1,51.7,2.2,77.5,3.4
	c3.4,0.2,4.6-0.9,4.5-4.2c-0.1-5.1,0-10.2,0.3-15.3c0.1-2-0.8-5.4,2.7-5.4c3.9,0,2.1,3.3,2.2,5.3C111.1,75.9,111,79.1,111,82.3z
	 M87.1,106.7c0,0,0-0.1,0-0.1c4.2,0.3,8.5,0.3,12.7,0.8c3.3,0.4,4.4-0.6,4.8-3.9c0.8-5.5-2.1-6.5-6.5-6.6c-25-1-49.9-1.9-74.9-3.1
	c-4-0.2-5.2,1.3-5.4,5c-0.2,3.9,1.3,5.2,5.1,5.3C44.4,104.9,65.8,105.8,87.1,106.7z M53.9,118.3c3.8,0,7.2,0,10.5,0
	c2.5,0,3.2-0.6,2.6-3.4c-0.8-3.7-2.9-4.2-6.2-4.5C55,110,55.2,114,53.9,118.3z"/>
<path d="M66.1,6c9.3,0.9,19.4,1.5,29.6,1.4c2.5,0,4.5,0.7,6.2,2.6c8.4,9.2,17,18.4,25.4,27.6c2.2,2.5,5.1,5.4-0.9,7.3
	c-2.2,0.7-1.4,3.3-1.5,5.1c-0.4,7.4-0.7,14.8-1.2,22.2c-0.1,2.1,0.9,5.4-3,5c-3.7-0.4-2.1-3.7-1.9-5.6c0.8-7.4,0.8-14.8,1-22.2
	c0-2.6,0.5-5.1-3.5-5.2c-3.7-0.1-4,1.9-4.2,4.7c-0.8,13.4-0.9,13.4-14.7,12.2c-1.7-0.1-3.5-0.5-5.1-0.2
	c-21.1,4.6-29.2-11.5-39.2-24.5c-1.6-2.1-0.6-4,0.6-5.8c1.5-2.3,2.8-4.8,4.6-6.9c2.8-3.3,2.5-5.9-0.7-8.6c-1.1-1-2-2.2-2.8-3.4
	c-2.5-3.5-1.7-5.5,2.7-5.7C60.1,5.9,62.7,6,66.1,6z M121.2,38.8c-8-8.9-15.3-16.9-22.5-24.8c-1.1-1.2-2.5-1.4-4.1-1.5
	c-9.3-0.4-18.6-0.9-28-1.2c-1.2,0-2.7-0.6-3.4,0.8c-0.7,1.4,0.6,2.3,1.4,3.3C70.4,22,76.2,28.8,82,35.5c1,1.1,2,2.3,3.7,2.3
	C97.1,37.5,108.4,40,121.2,38.8z M106.9,50.3c1.4-5.2-1.4-6.7-6.1-6.8c-4.7,0-9.3-0.7-14-0.4c-4.4,0.3-7.1-1.6-9.6-4.9
	c-3.2-4.2-6.7-8.2-10.1-12.2c-0.9-1-1.6-2.5-3.6-1c-4.6,3.6-5.6,9.4-2,14c3.4,4.3,7.1,8.5,10.3,12.9c2,2.7,4.2,3.7,7.5,3.7
	c7,0,14-0.2,20.9,0.8C105.9,57.2,108,55.8,106.9,50.3z"/>
<path d="M120.7,82.7c3.4,0.8,5.5,2.7,4.9,5.8c-0.7,3.1-2,7.8-5.4,7.3c-3-0.4-4.1-5-4.1-8.4C116,84.4,118.3,83.2,120.7,82.7z"/>
</svg>
