<?xml version="1.0" encoding="utf-8"?>
<!-- Generator: Adobe Illustrator 25.0.0, SVG Export Plug-In . SVG Version: 6.00 Build 0)  -->
<svg version="1.1" id="Слой_1" xmlns="http://www.w3.org/2000/svg" xmlns:xlink="http://www.w3.org/1999/xlink" x="0px" y="0px"
	 viewBox="0 0 141.7 141.7" style="enable-background:new 0 0 141.7 141.7;" xml:space="preserve">
<g id="QMJjGL.tif">
	<g>
		<path d="M61.8,32.1c-1.2-8-4.9-13.2-10.3-17.3c-1.6-1.2-4.1-2.3-2.2-4.9c1.8-2.4,3.7-0.6,5.4,0.6c4.7,3.2,7.6,8,11.2,13.2
			c5.2-9.2,12.8-14,22.7-15c6.6-0.6,8.1,1,6.5,7.5c-1,3.8-3.8,8-2.8,11c0.7,2.2,6.4,2.6,9.7,4.1c7.5,3.5,12.8,9.3,15.9,16.9
			c4.6,11.3,3.6,22.8,0.4,34.3c-0.7,2.6-2.3,4.5-4.9,3.9c-3.6-0.9-0.8-3.6-0.4-5.1c2.2-8.7,3.5-17.3,1.2-26.2
			C109.1,35,86,26.8,69.3,39.3c-2.8,2.1-4.4,3.1-7.7,0.5c-9.5-7.5-20.2-8.2-30.9-3.2C19.6,41.7,15,51.7,15,63.3
			c-0.1,19.1,7.1,35.4,21.3,48.4c2.6,2.3,4.8,4.4,3.2,8.3c-2.5,0.4-3.8-1.5-5.2-2.8C17.7,103,9.2,84.8,9.4,63.1
			c0.3-25.7,21.7-40.7,46.3-33C57.4,30.7,59.1,31.2,61.8,32.1z M69,31.8c3.8-1.1,6.4-2.3,9-2.4c6.4-0.4,8.5-4.8,10.3-9.8
			c1.6-4.4-0.1-5.5-4.3-4.3C76.3,17.6,71.6,22.8,69,31.8z"/>
		<path d="M126.7,65.7c4.5,4.5,5.5,8.5,5.5,12.7c0.1,11.2,0.2,22.3,0,33.5c-0.2,11.4-8,19.4-19.4,19.6c-20.5,0.3-40.9,0-61.4,0.1
			c-4.1,0-5.9-1.4-5.9-5.7c0.2-9.1,0.2-18.1,0-27.2c-0.1-5,2.1-6.4,6.7-6.3c18.6,0.1,37.2,0.1,55.8,0.1c14.3,0,18.5-4.3,18.6-18.8
			C126.7,71.5,126.7,69.5,126.7,65.7z M126.6,94c-7.2,1.2-9.1,5.1-8.4,11c0.4,3,0.1,6,0,9.1c-0.1,1.5-0.6,2.9-2.3,3
			c-2,0.1-3-1.2-3.1-3c-0.1-3.3-0.2-6.5-0.1-9.8c0.1-3.7,0.2-6.6-5.3-6.5c-5.2,0.1-6.5,2-6,6.6c0.2,2.3,0,4.6-0.1,7
			c-0.1,1.5-0.6,2.9-2.3,3c-2,0.1-3-1.2-3-3.1c-0.1-3-0.3-6.1-0.1-9.1c0.3-4.2-2.2-4.4-5.3-4.3c-3.1,0.1-6.3-0.5-6,4.3
			c0.2,3.7,0,7.4,0,11.2c0,1.7-0.3,3.5-2.4,3.7c-2.4,0.1-3-1.7-3.1-3.8c-0.1-3-0.1-6,0-9.1c0.1-3.8,0.1-6.5-5.3-6.5
			c-5.2,0-6.5,2.1-5.9,6.6c0.2,1.4,0,2.8-0.1,4.2c-0.1,1.5-0.7,2.9-2.3,3c-2,0.1-2.9-1.3-3-3.1c-0.1-1.4-0.2-2.8-0.1-4.2
			c0.2-3.8,0.1-6.5-5.3-6.5c-5.3,0-6.2,2.1-6,6.6c0.3,5.6,0.2,11.2,0,16.7c-0.1,3.6,1.2,4.9,4.8,4.9c19.1-0.1,38.1,0.1,57.2-0.2
			c7.8-0.1,13-5.5,13.4-13.3C126.9,106.5,126.6,100.5,126.6,94z"/>
	</g>
</g>
</svg>
