<?xml version="1.0" encoding="utf-8"?>
<!-- Generator: Adobe Illustrator 25.0.0, SVG Export Plug-In . SVG Version: 6.00 Build 0)  -->
<svg version="1.1" id="Слой_1" xmlns="http://www.w3.org/2000/svg" xmlns:xlink="http://www.w3.org/1999/xlink" x="0px" y="0px"
	 viewBox="0 0 141.7 141.7" style="enable-background:new 0 0 141.7 141.7;" xml:space="preserve">
<g>
	<path d="M9.4,108.6c0-26.1,0-52.2,0-78.3c0.3-0.5,0.8-1,1-1.6c2.4-6.5,7.1-10.3,14-10.5c6.7-0.2,11.4,3.4,13.8,9.6
		c1.4,3.7,4.3,2.6,6.8,2.6c27.8,0.1,55.6,0.1,83.4-0.1c4.6,0,6,1.1,6,5.8c-0.2,25.7-0.3,51.3,0,77c0.1,5.3-1.1,7-6.7,6.9
		c-32.6-0.3-65.1-0.4-97.7,0C20.3,120.3,13.4,117.4,9.4,108.6z M74.8,115.1c16.4,0,32.8-0.1,49.2,0.1c3.8,0,5.4-0.8,5.4-5.1
		c-0.2-23.2-0.2-46.4,0-69.5c0-4.2-1.4-5.2-5.4-5.2c-26.3,0.1-52.7,0.2-79,0c-4.5,0-5.6,1.4-5.5,5.7c0.2,19.2,0.2,38.5,0,57.7
		c0,2.1,1.9,5.3-1.9,6.2c-3.4,0.8-3.1-2.6-4.1-4.3c-2-3.6-5.1-5.5-9.1-5.3c-4.3,0.2-7.4,2.5-8.9,6.6c-2.5,6.7,2.3,13,10.3,13.1
		C42,115.2,58.4,115.1,74.8,115.1z M14.5,93.7C20,90.6,25,89,30.1,91.5c3.6,1.8,4.5,1.1,4.5-2.8c-0.1-18,0-36-0.1-54
		c0-7-3.8-11.3-9.5-11.6c-5.9-0.2-10.3,4.4-10.4,11.4c-0.1,14.1,0,28.1,0,42.2C14.5,82,14.5,87.3,14.5,93.7z"/>
	<path d="M113.3,67.2c-4.8-8-8.2-4.5-12.2-0.3C97.9,70.3,95,76,90.7,76c-4.4,0.1-7.2-5.7-10.4-9c-2.6-2.7-4.4-2.8-7.1-0.2
		c-3.7,3.6-7.8,6.9-11.7,10.3c-1.5,1.3-2.9,2.6-4.6,0.3c-1.5-2,0.2-3,1.4-4c5.3-4.7,10.7-9.2,15.9-14c2.2-2,3.7-1.9,5.7,0.2
		c2.5,2.8,5.4,5.2,7.9,8c2.2,2.5,4,2.3,6-0.1c1.2-1.4,2.5-2.8,4-3.9c4.6-3.7,7.6-7.4,0.2-12.2c5.1-1.9,9.6-0.8,14-1
		c2.4-0.1,2.4,1.8,2.4,3.5c0,3.9,0,7.8,0,11.7C113.9,66.2,113.6,66.7,113.3,67.2z"/>
	<path d="M83.1,97.6c-8.9,0-17.8,0-26.7,0c-1.6,0-4.1,0.9-4.3-2.1c-0.2-3.3,2.4-2.8,4.3-2.8c17.8,0,35.7,0,53.5,0
		c2,0,4.5-0.4,4.2,2.9c-0.2,3-2.7,2-4.3,2C100.9,97.7,92,97.6,83.1,97.6z"/>
</g>
</svg>
