<?xml version="1.0" encoding="utf-8"?>
<!-- Generator: Adobe Illustrator 25.0.0, SVG Export Plug-In . SVG Version: 6.00 Build 0)  -->
<svg version="1.1" id="Слой_1" xmlns="http://www.w3.org/2000/svg" xmlns:xlink="http://www.w3.org/1999/xlink" x="0px" y="0px"
	 viewBox="0 0 141.7 141.7" style="enable-background:new 0 0 141.7 141.7;" xml:space="preserve">
<path d="M8.2,110c4.2-8.9,10.9-13.6,21-12.5c1.9,0.2,3.6-0.2,3.6-2.8c0-2.8-1.9-2.5-3.7-2.6C17.7,91,16.7,89.8,16.7,78.4
	c0-8.4-0.1-16.8,0-25.2c0.1-7.1,2.9-9.9,9.9-10c11.6-0.1,23.1,0,34.7-0.1c4,0,7,1.4,9.3,4.5c3.1,4.2,6.1,8.6,9.7,12.3
	c6.3,6.4,7.8,13.9,7.2,22.4c-0.4,5.2-2.3,8.7-7.6,9.7c-2,0.3-3.6,0.7-3.3,3.2c0.3,2.7,2.3,2.3,4.1,2.4c1.4,0.1,2.7,0,4.1,0
	c8,0.4,14.1,5.2,15.9,12.5c1.7,7.2-1.7,14.3-8.6,18.3c-1.1,0.7-2.3,1.4-3.4,2.1c-22.2,0-44.5,0-66.7,0c-6.5-2.6-11.1-7-13.6-13.6
	C8.2,114.6,8.2,112.3,8.2,110z M52.2,86.7c8.4,0,16.8,0,25.2,0c3.6,0,4.7-1.9,4.6-5.2c0-3.7-2.7-2.9-4.8-3c-3.2-0.1-6.4,0-9.5,0
	c-15-0.3-11.3,2.4-15.4-11.9c-5.4-18.8-5.2-18.9-24.3-18c-0.2,0-0.5,0-0.7,0c-3.8-0.3-5.3,1.5-5.2,5.3c0.1,9.1,0.1,18.1,0,27.2
	c-0.1,4,1.6,5.8,5.7,5.7C35.9,86.6,44,86.7,52.2,86.7z M54.8,103c-9.5,0-19-0.1-28.6,0c-7.5,0.1-12.3,4.5-12.2,10.8
	c0,6.3,4.9,10.8,12.3,10.9c19,0.1,38.1,0.1,57.1,0c7.5-0.1,12.1-4.5,12.1-10.9c0-6.5-4.6-10.7-12.2-10.8
	C73.8,102.9,64.3,103,54.8,103z M70.4,73.1c2,0,4.1,0.1,6.1,0c1.7-0.2,4,1,4.8-1.2c0.6-1.6-1-2.9-1.9-4.1
	c-4.1-5.4-8.5-10.7-12.5-16.2c-3.3-4.4-8.1-3.7-11.8-2.5c-4,1.3,0.1,4.9,0.1,7.5c0,2,1,3.9,1.5,5.9C60.4,75.1,57.5,72.8,70.4,73.1z
	 M55.2,92.1c-4.5,0-9.1,0-13.6,0c-1.7,0-3.1,0.3-3.1,2.6c0,2.1,1.1,2.8,3,2.8c8.8,0,17.7,0,26.5,0c1.8,0,3-0.6,3.1-2.7
	c0.1-2.8-1.8-2.7-3.6-2.7C63.3,92.1,59.3,92.1,55.2,92.1z"/>
<path d="M118.6,19c-8.6,12.9-17.3,25.8-25.9,38.8c-0.9,1.3-1.7,2.7-2.7,3.9c-0.8,1-1.3,2.8-2.9,2.1c-1.5-0.6-2.9-2.3-2-3.8
	c4.1-6.4-0.1-12.8,0.7-19.7c-4.3,0.8-5.8,4.2-8.3,6.2c-1.3,1.1-2.4,2.2-4,0.4c-1.3-1.5-1.2-2.8,0.2-4.1c11.9-12.1,23.7-24.4,36-36.1
	c3.6-3.5,9.3-2.1,13.7-1c3.9,1.1,2.1,5.5,2.1,8.4c0.2,18.1,0.1,36.3,0.1,54.4c0,3.6,2,8,1.5,10.2c-1.9,8.1,2.6,12.9,6,18.9
	c2.8,5-1.6,11.5-7.3,13.1c-5.5,1.5-11.8-2.2-13.2-7.8c-0.5-1.9-0.8-3.8,1.3-4.7c2.4-1,3.1,0.7,3.7,2.6c0.8,2.9,2.6,4.9,5.8,4.7
	c2.5-0.1,4.2-1.7,4.8-4.2c0.7-3.2-1.2-4.9-3.7-6.6c-4.7-3.3-7.1-12.5-5.1-17.6c0.5-1.2,0.8-2.6,0.8-3.9c0.1-17.9,0-35.8,0-53.7
	C119.6,19.4,119.1,19.2,118.6,19z M92,47.6c4-4,6.4-7.7,8.3-12C90.1,34.6,90.1,34.6,92,47.6z M116.8,11.1c-7.4,0.2-9.8,3.6-7.6,11.1
	C112.6,18.9,114.8,15.2,116.8,11.1z M101.9,21.7c-2.3,2.8-4.9,4.2-6.2,7.5C101.1,29.9,105,29.9,101.9,21.7z"/>
<path d="M30.1,113.7c-0.3,3.2-2,5.3-5,5.4c-3.4,0.1-5.6-2.1-5.5-5.5c0.1-3,2.2-5,5.3-5C28.1,108.7,29.7,110.7,30.1,113.7z"/>
<path d="M46.5,113.6c-0.3,3.2-1.9,5.3-5,5.4c-3.4,0.1-5.6-2-5.5-5.4c0.1-3,2.1-5,5.3-5C44.4,108.6,46,110.6,46.5,113.6z"/>
<path d="M68.6,119.2c-3-0.4-5.2-2-5.4-5.1c-0.1-3.4,2-5.5,5.4-5.5c3.2,0,5,2.1,5,5.2C73.6,117,71.6,118.7,68.6,119.2z"/>
<path d="M84.6,119.2c-3-0.7-5.2-2.3-5.1-5.4c0.1-3.4,2.4-5.4,5.8-5.1c3.1,0.3,4.9,2.4,4.6,5.6C89.7,117.3,87.6,118.9,84.6,119.2z"/>
</svg>
