<?xml version="1.0" encoding="utf-8"?>
<!-- Generator: Adobe Illustrator 25.0.0, SVG Export Plug-In . SVG Version: 6.00 Build 0)  -->
<svg version="1.1" id="Слой_1" xmlns="http://www.w3.org/2000/svg" xmlns:xlink="http://www.w3.org/1999/xlink" x="0px" y="0px"
	 viewBox="0 0 141.7 141.7" style="enable-background:new 0 0 141.7 141.7;" xml:space="preserve">
<path d="M9.3,120.1c2.8-1.6,5.1-0.1,7.3,1.3c7.2,4.7,14.2,3.9,21.4,0c14-7.5,22.4-19.4,27.5-34.1c3.5-10.4,4.9-21.1,5.6-32
	c0.3-4.9-1.5-5-5.2-3.3c-14.7,6.6-22.6,18.3-25.8,33.8c-0.6,2.8,0.5,7.4-3.1,7.8c-4,0.4-4.2-4.5-5.3-7.3c-4.8-12.1-7.3-24.4-1.5-37
	c0.4-0.9,1.7-2.4-0.3-2.9c-4-1-2.8-4-2.5-6.5c3.1-25.8,27.1-37.3,49.2-23.4c3.8,2.4,6.2,2.5,9.7-0.1c3.5-2.6,7.6-4,11.9-4.9
	c12.3-2.6,21.4,1.8,26.7,13.1c0.8,1.7,1.6,3.4,1.9,5.2c0.8,3.7,4.2,8.2,0.9,10.8c-3.4,2.7-5.5-2.8-8.4-4.3c-7.9-4.1-15.7-7.9-25-4.4
	c0.7,2.7,2.7,1.8,4.1,2c8.5,1.3,16.3,4.2,23.1,9.4c11.3,8.7,14.4,20.9,8.7,33.9c-2.1,4.7-5,8.9-8.1,13c-1.2,1.6-2.2,3.9-4.7,2.9
	c-2.2-0.8-1.6-3.1-1.6-4.9c0.2-6.4-0.5-12.7-2.7-18.8c-3.3-8.9-9-15.5-17.8-19.3c-6-2.6-6.5-2.2-6.7,4.2
	c-0.4,16.8-1.4,33.6-4.9,50.1c-1.2,5.7-3,11.3-4.7,17.7c10.2-2.5,20-4.5,30.1-2.2c7.5,1.7,14.5,4.3,21.1,8.2c1.6,1,3.6,2.2,2.4,4.3
	c-1.3,2.3-3.2,0.8-4.8-0.1c-16.7-9.8-34-10.6-52-3.9c-15.1,5.6-30.7,7-46.5,2.6c-6.9-2-13.6-4.5-19.6-8.7
	C9.3,121.8,9.3,120.9,9.3,120.1z M36.1,81.5c6.9-24.1,22.8-38.2,47.2-38.2c23.4,0,34.1,16.2,37.2,38.5c10.6-12.4,9.3-26-2.9-34.8
	c-8.9-6.4-19.1-9.1-30.1-9c-1.6,0-3.5,0.7-4.4-1.1c-1.1-2.1,0.5-3.5,1.8-4.8c5.4-5.1,11.8-7.2,19.2-6.3c5.7,0.7,10.9,3,16.4,5.2
	c-2-11.6-10-17.1-20.6-14.8c-5.3,1.2-10.2,3.4-14.4,6.6c-3.1,2.4-5.4,2.5-8.5-0.2c-6-5.1-13.4-7.1-21.2-6.9
	c-10,0.3-18.5,7-20.1,15.7c1.9-1,3.7-2.1,5.5-2.9c7.6-3.6,15.4-4.4,23.2-1c2.9,1.3,7.2,2.6,6.7,6.3c-0.6,4.3-5.1,2.1-7.8,2.2
	C37.1,36.8,24.1,57.9,36.1,81.5z M37.4,127.7c6.7,1.6,12.4,1.8,18,0.8c16.2-2.8,16.5-0.9,21.6-18.6c5.4-18.6,6.1-37.9,6.3-57.2
	c0-1.8,1.4-5-2.6-4.8c-3,0.1-4.8,1.2-4.8,4.8c-0.1,5.5-0.5,11.1-1.2,16.5c-2.4,17.4-7.9,33.4-20.4,46.4
	C49.6,120.4,43.9,123.6,37.4,127.7z M33.7,42.8c6.1-6.2,13.7-9.3,22-11.2C46.4,29.8,38.4,33.9,33.7,42.8z"/>
</svg>
