<svg height="512" viewBox="0 0 60 60" width="512" xmlns="http://www.w3.org/2000/svg"><g id="Page-1" fill="none" fill-rule="evenodd"><g id="011---Capital" fill="rgb(0,0,0)"><path id="Path" d="m25 11c1.1045695 0 2 .8954305 2 2 0 .5522847.4477153 1 1 1s1-.4477153 1-1c-.0068148-1.8184116-1.2393149-3.40340667-3-3.858v-.142c0-.55228475-.4477153-1-1-1s-1 .44771525-1 1v.142c-1.9482742.50144572-3.2190002 2.3742805-2.9650329 4.3699561.2539674 1.9956755 1.953264 3.4905487 3.9650329 3.4880439 1.1045695 0 2 .8954305 2 2s-.8954305 2-2 2-2-.8954305-2-2c0-.5522847-.4477153-1-1-1s-1 .4477153-1 1c.0068148 1.8184116 1.2393149 3.4034067 3 3.858v.142c0 .5522847.4477153 1 1 1s1-.4477153 1-1v-.142c1.9482742-.5014457 3.2190002-2.3742805 2.9650329-4.3699561-.2539674-1.9956755-1.953264-3.4905487-3.9650329-3.4880439-1.1045695 0-2-.8954305-2-2s.8954305-2 2-2z"/><path id="Shape" d="m60 41c0-1.6568542-1.3431458-3-3-3h-.184c.1184378-.320257.1806856-.6585603.184-1 0-1.6568542-1.3431458-3-3-3h-.025c3.1623176-2.3517144 4.6457745-6.3433217 3.7868667-10.1895004-.8589079-3.8461787-3.8995206-6.8274952-7.7618667-7.6104996v-13.2c0-1.65685425-1.3431458-3-3-3h-44c-1.65685425 0-3 1.34314575-3 3v26c0 1.6568542 1.34314575 3 3 3h37.019c.5709604.7579685 1.2463246 1.4313126 2.006 2h-.025c-1.6568542 0-3 1.3431458-3 3s1.3431458 3 3 3h.184c-.2453699.6440893-.2453699 1.3559107 0 2h-.184c-1.6568542.0000001-2.9999999 1.3431458-2.9999999 3s1.3431457 2.9999999 2.9999999 3h.184c-.2453699.6440893-.2453699 1.3559107 0 2h-.184c-1.6568542 0-3 1.3431458-3 3s1.3431458 3 3 3h.184c-.1184378.320257-.1806856.6585603-.184 1 0 1.6568542 1.3431458 3 3 3h12c1.6568542 0 3-1.3431458 3-3s-1.3431458-3-3-3h-.184c.2453699-.6440893.2453699-1.3559107 0-2h.184c1.6568542-.0000001 2.9999999-1.3431458 2.9999999-3s-1.3431457-2.9999999-2.9999999-3h-.184c.2453699-.6440893.2453699-1.3559107 0-2h.184c1.6568542 0 3-1.3431458 3-3zm-57-11c-.55228475 0-1-.4477153-1-1v-26c0-.55228475.44771525-1 1-1h44c.5522847 0 1 .44771525 1 1v13c-.6716974-.0007873-1.3417594.0662189-2 .2v-6.2c0-.55228475-.4477153-1-1-1-2.209139 0-4-1.790861-4-4 0-.55228475-.4477153-1-1-1h-30c-.55228475 0-1 .44771525-1 1 0 2.209139-1.790861 4-4 4-.55228475 0-1 .44771525-1 1v12c0 .5522847.44771525 1 1 1 2.209139 0 4 1.790861 4 4 0 .5522847.44771525 1 1 1h28.2c.1410845.6875423.3553028 1.3580224.639 2zm35-4h-6.381c3.3597833-2.2176689 5.3813694-5.9743076 5.3813694-10s-2.0215861-7.78233114-5.3813694-10h7.464c.4301392 2.51603145 2.4009686 4.4868608 4.917 4.917v5.924c-3.6404737 1.5916648-5.9949594 5.1857872-6 9.159zm-23-10c0-5.5228475 4.4771525-10 10-10s10 4.4771525 10 10-4.4771525 10-10 10c-5.5203344-.0060624-9.9939376-4.4796656-10-10zm3.381 10h-7.464c-.4301392-2.5160314-2.40096855-4.4868608-4.917-4.917v-10.166c2.51603145-.4301392 4.4868608-2.40096855 4.917-4.917h7.464c-3.3597833 2.21766886-5.3813694 5.9743076-5.3813694 10s2.0215861 7.7823311 5.3813694 10zm21.619 0c0-4.418278 3.581722-8 8-8s8 3.581722 8 8-3.581722 8-8 8c-4.4162219-.0049599-7.9950401-3.5837781-8-8zm1 11c0-.5522847.4477153-1 1-1h12c.5522847 0 1 .4477153 1 1s-.4477153 1-1 1h-12c-.5522847 0-1-.4477153-1-1zm3 4c0-.5522847.4477153-1 1-1h12c.5522847 0 1 .4477153 1 1s-.4477153 1-1 1h-12c-.5522847 0-1-.4477153-1-1zm14 16c0 .5522847-.4477153 1-1 1h-12c-.5522847 0-1-.4477153-1-1s.4477153-1 1-1h12c.5522847 0 1 .4477153 1 1zm-3-4c0 .5522847-.4477153 1-1 1h-12c-.5522847 0-1-.4477153-1-1s.4477153-1 1-1h12c.5522847 0 1 .4477153 1 1zm3-4c0 .5522847-.4477153 1-1 1h-12c-.5522847 0-1-.4477153-1-1s.4477153-1 1-1h12c.5522847 0 1 .4477153 1 1zm-3-4c0 .5522847-.4477153 1-1 1h-12c-.5522847 0-1-.4477153-1-1s.4477153-1 1-1h12c.5522847 0 1 .4477153 1 1z" fill-rule="nonzero"/><path id="Shape" d="m14 53c0 1.6568542 1.3431458 3 3 3h.184c-.1184378.320257-.1806856.6585603-.184 1 0 1.6568542 1.3431458 3 3 3h12c1.6568542 0 3-1.3431458 3-3s-1.3431458-3-3-3h-.184c.2453699-.6440893.2453699-1.3559107 0-2h.184c1.6568542-.0000001 2.9999999-1.3431458 2.9999999-3s-1.3431457-2.9999999-2.9999999-3h-.184c.2453699-.6440893.2453699-1.3559107 0-2h.184c1.6568542 0 3-1.3431458 3-3s-1.3431458-3-3-3h-12c-1.6568542 0-3 1.3431458-3 3 .0033144.3414397.0655622.679743.184 1h-.184c-1.6568542 0-3 1.3431458-3 3s1.3431458 3 3 3h.184c-.2453699.6440893-.2453699 1.3559107 0 2h-.184c-1.6568542 0-3 1.3431458-3 3zm19 4c0 .5522847-.4477153 1-1 1h-12c-.5522847 0-1-.4477153-1-1s.4477153-1 1-1h12c.5522847 0 1 .4477153 1 1zm-3-4c0 .5522847-.4477153 1-1 1h-12c-.5522847 0-1-.4477153-1-1s.4477153-1 1-1h12c.5522847 0 1 .4477153 1 1zm-11-12c0-.5522847.4477153-1 1-1h12c.5522847 0 1 .4477153 1 1s-.4477153 1-1 1h-12c-.5522847 0-1-.4477153-1-1zm-3 4c0-.5522847.4477153-1 1-1h12c.5522847 0 1 .4477153 1 1s-.4477153 1-1 1h-12c-.5522847 0-1-.4477153-1-1zm3 4c0-.5522847.4477153-1 1-1h12c.5522847 0 1 .4477153 1 1s-.4477153 1-1 1h-12c-.5522847 0-1-.4477153-1-1z" fill-rule="nonzero"/><path id="Path" d="m48 25c-.4851707-.000473-.9000069-.3491365-.9839455-.8269912-.0839386-.4778548.1872399-.9470217.6432053-1.1128119.4559653-.1657902.9651545.0196329 1.2077402.4398031.1727115.3209394.5063525.5225002.8707953.5260692.3644429.003569.7019673-.1914191.880931-.5089145s.1710225-.7072132-.0207263-1.0171547c-.3625283-.608365-.9285888-1.0688648-1.598-1.3v-.2c0-.5522847-.4477153-1-1-1s-1 .4477153-1 1v.184c-1.3765475.4848523-2.2026937 1.8918441-1.9553873 3.330178s1.49595 2.4885874 2.9553873 2.485822c.4851707.000473.9000069.3491365.9839455.8269912.0839386.4778548-.1872399.9470217-.6432053 1.1128119-.4559653.1657902-.9651545-.0196329-1.2077402-.4398031-.2843876-.4596821-.882589-.61017-1.3506397-.3397768s-.6365131.8637835-.3803603 1.3397768c.3630242.6087308.9298468 1.0692742 1.6 1.3v.2c0 .5522847.4477153 1 1 1s1-.4477153 1-1v-.184c1.3769108-.4849733 2.2030823-1.8925391 1.9552305-3.3311676-.2478517-1.4386286-1.4974125-2.4885802-2.9572305-2.4848324z"/></g></g></svg>