<?xml version="1.0" encoding="utf-8"?>
<!-- Generator: Adobe Illustrator 25.0.0, SVG Export Plug-In . SVG Version: 6.00 Build 0)  -->
<svg version="1.1" id="Слой_1" xmlns="http://www.w3.org/2000/svg" xmlns:xlink="http://www.w3.org/1999/xlink" x="0px" y="0px"
	 viewBox="0 0 141.7 141.7" style="enable-background:new 0 0 141.7 141.7;" xml:space="preserve">
<path d="M74.6,23.5c1.2,0.8,2.5,1.4,3.6,2.3c4.8,3.8,5.4,10.5,1.3,14.7c-3.9,4.1-10.5,4-14.4-0.2c-3.9-4.3-3.5-10.3,1.1-14.3
	c1.1-0.9,2.3-1.7,3.4-2.6C71.3,23.5,73,23.5,74.6,23.5z M72.2,28.8c-2.8,0.5-4.8,2.1-4.7,5c0.1,3.2,2.2,5,5.4,4.7
	c2.9-0.2,4.5-2.2,4.3-5.1C76.9,30.4,75,29,72.2,28.8z"/>
<path d="M124.8,75.3c0,0.6,0,1.2,0,1.9C125.8,92.3,123,97.5,107,96c-3.5-0.3-4.9,1-4.7,4.6c0.2,3.3,0.1,6.6,0,9.9
	c-0.1,4.6-2.4,7.6-7.1,7.8c-4.7,0.2-7.5-2.7-7.7-7.2c-0.3-6.8-0.4-13.7,0-20.5c0.4-6.1,4.6-9.6,11.7-9.4c4.9,0.2,6.1-1.6,5.7-6
	c-0.3-3.5-0.2-7,0-10.6c0.4-6.5,4.9-11.2,10.4-10.9c5.5,0.2,9.3,4.6,9.5,11C124.9,68.3,124.8,71.8,124.8,75.3z M119.9,74.8
	c0-3.3,0-6.6,0-10c0-3.3-1.2-6-4.8-6.1c-3.6-0.1-5,2.7-5.1,5.9c-0.2,5-0.4,10,0,14.9c0.3,4.9-1.3,7.1-6.4,6.4c-1.4-0.2-2.9,0-4.4,0
	c-4.7-0.1-6.9,2.2-6.9,6.9c0.1,5.4,0,10.8,0,16.2c0,1.9,0.1,4.1,2.7,4c2.2-0.1,2.2-2.1,2.2-3.8c0-3.9,0.3-7.9,0-11.8
	c-0.4-4.9,1.6-6.6,6.5-6.5C121.4,91.3,119.9,92.2,119.9,74.8z"/>
<path d="M57.3,101.1c0,3.3,0.1,6.6,0,9.9c-0.2,4.3-2.6,7.1-7,7.3c-4.7,0.2-7.4-2.6-7.8-7.1c-0.4-4.7,1.3-10.7-1-13.9
	c-2.5-3.5-9-0.4-13.6-1.6c-5-1.3-7.8-4.7-8-9.8c-0.2-7.2-0.2-14.5,0-21.7C20.1,58,24.5,53.6,30,53.7c5.1,0.1,9.2,4.4,9.7,10.3
	c0.1,1.6,0,3.3,0.1,5c0,3.5-0.9,7.5,0.4,10.4c1.5,3.5,6,1,9,1.9c4.7,1.4,7.6,4.3,8,9.2C57.4,94,57.2,97.5,57.3,101.1
	C57.2,101.1,57.2,101.1,57.3,101.1z M52.3,100.7c0-2.1,0-4.2,0-6.2c-0.1-7.2-1.2-8.3-8.3-8.4c-1.3,0-2.5-0.1-3.7,0
	c-4.1,0.4-5.6-1.4-5.5-5.4c0.2-5.4,0.1-10.8,0-16.2c-0.1-3-1.4-5.5-4.7-5.6c-3.5-0.1-5.2,2.4-5.2,5.7c-0.1,6.9-0.1,13.7,0,20.6
	c0.1,4.1,2.4,5.9,6.4,5.9c3.8,0,7.5,0.1,11.3,0c3.5-0.1,4.9,1.5,4.8,4.9c-0.1,4.4,0,8.7,0,13.1c0,1.9,0,4.2,2.6,4.1
	c2.7-0.1,2.3-2.5,2.3-4.3C52.4,106.1,52.3,103.4,52.3,100.7z"/>
<path d="M72.7,76c-7.9,0-15.8,0-23.7,0c-1.7,0-3.7-0.1-3.6-2.4c0-2.1,1.9-2.8,3.6-2.5c6,1,6-2.5,6-6.9C54.8,52,60.8,46.1,72.7,46.1
	c11,0.1,17.1,5.9,17.1,16.9c0,4.9-0.4,9.3,6.7,8.2c1.5-0.2,3,0.6,2.9,2.4c-0.1,2.3-2,2.4-3.7,2.4C88.1,76.1,80.4,76,72.7,76z
	 M72.1,71.1c1.2,0,2.5,0,3.7,0c9.9,0,9.8,0,9-10c-0.5-5.5-3.3-8.8-8.7-9.8c-7.5-1.4-13.2,1-15.4,6.3c-3.8,9-0.8,13.6,8.9,13.6
	C70.4,71.1,71.2,71.1,72.1,71.1z"/>
<path d="M9.9,80c0-3.5,0-7,0-10.5c0-1.6,0.8-3,2.5-2.9c1.8,0,2.3,1.5,2.3,3.1c0.1,5.6,0,11.2,0.1,16.7c0.1,9.9,4.7,14.3,14.4,14.8
	c2.7,0.1,7.6-1.9,7.5,2.7c-0.1,3.7-4.7,2.1-7.3,2.1C17,105.9,10,99,9.8,86.8C9.8,84.5,9.8,82.3,9.9,80C9.8,80,9.8,80,9.9,80z"/>
<path d="M134.9,80c0,2.3,0,4.6,0,6.8c-0.2,13.7-11.1,22.3-24.4,19.1c-1.3-0.3-2.6-0.7-2.7-2.1c-0.1-1.7,1.2-2.6,2.8-2.7
	c1.4-0.1,2.9-0.1,4.4-0.1c10.7-0.2,14.9-4.4,14.9-15.3c0-5,0-9.9,0-14.9c0-1.9,0-4.2,2.4-4.3c2.7-0.1,2.5,2.3,2.5,4.1
	C134.9,73.8,134.9,76.9,134.9,80z"/>
<path d="M39.7,41.1c0.1,5.5-4.3,9.9-9.8,9.9c-5.4,0-10-4.4-10.1-9.8c0-5.3,4.6-10,9.9-10C35.1,31.2,39.6,35.7,39.7,41.1z M34.7,41.2
	c-0.3-2.9-1.8-4.8-4.7-4.9c-3.2,0-5.2,2-5,5.1c0.1,2.8,2,4.6,5,4.5C32.9,45.9,34.4,44.1,34.7,41.2z"/>
<path d="M124.8,41c0.1,5.5-4.2,9.9-9.7,10c-5.4,0.1-10.1-4.3-10.2-9.7c-0.1-5.2,4.5-10,9.8-10.1C120,31.1,124.7,35.6,124.8,41z
	 M119.8,41.2c-0.3-2.9-1.9-4.8-4.8-4.8c-3.2,0-5.1,2-5,5.2c0.1,2.8,2.1,4.5,5,4.4C118,45.9,119.5,44.1,119.8,41.2z"/>
</svg>
