<?xml version="1.0" encoding="utf-8"?>
<!-- Generator: Adobe Illustrator 25.0.0, SVG Export Plug-In . SVG Version: 6.00 Build 0)  -->
<svg version="1.1" id="Слой_1" xmlns="http://www.w3.org/2000/svg" xmlns:xlink="http://www.w3.org/1999/xlink" x="0px" y="0px"
	 viewBox="0 0 141.7 141.7" style="enable-background:new 0 0 141.7 141.7;" xml:space="preserve">
<path d="M41.4,15.8c0.7,0,1.3,0,2,0c1.3,1.7,1.3,3.7,1.1,5.6c-0.4,3.9,1.3,4,4.3,2.8c5.4-2,10.9-3.6,16.2-5.8c5-2.1,9.7-1.8,14.7,0
	c15.7,5.8,31.5,11.2,47.2,16.8c8.7,3.1,8.8,3.3,8.2,12.3c-0.2,3.2-1.4,5.2-4.8,4.7c-2.6-0.4-3.1,0.5-3.1,2.8c0.1,12.1,0,24.2,0,36.3
	c0,1.8,0.1,3,2.4,3.3c3.9,0.5,5.5,3.1,5.4,6.9c0,3.3,0,6.5,0,9.8c0,4.4-2.3,6.6-6.7,6.7c-4.3,0-8.5,0.1-12.8,0
	c-2.7-0.1-4.4,0.3-4.2,3.6c0.2,3.1-1.9,4.1-4.8,4.3c-3.5,0.3-5.5-1.6-7.1-4.3c-1.7-2.8-4-3.9-7.3-3.7c-5.7,0.3-11.5,0.2-17.2,0
	c-2.2,0-3.5,0.6-4.8,2.5c-5.3,7.2-14.1,7.3-19.5,0.3c-3-3.9-5.2-3.8-8.2,0.1c-4.4,5.6-11.8,6.9-16.8,2.4c-2.9-2.5-5-5.6-9.3-6.2
	c-2.3-0.3-3.4-3.1-3.2-5.5c0.6-5.8-2.3-12.2,3.5-17c0.5-0.4,0.4-1.9,0.4-2.8c0-12.3,0-24.6,0-36.8c0-2.1-0.1-3.5-2.9-2.8
	c-2.4,0.6-4.1-0.6-4.8-3c-2-7,0.1-11.1,7-13.5c2-0.7,4-1.4,6-2.1c5.5-1.9,12.5-2.4,10.5-11.3c-0.2-1,0.6-1.9,1.7-2
	c1.5-0.1,1.9,1,2,2.2c0.1,0.8,0,1.6,0.1,2.5c0.1,1.2-0.4,2.9,1.7,2.8c1.6-0.1,2.2-1.2,2.2-2.7C40.7,22,40.1,18.8,41.4,15.8z
	 M52.2,94.6c9.2,0,18.4-0.1,27.5,0.1c3.1,0.1,4.3-0.7,4.2-4.1c-0.2-8-0.1-16,0-24.1c0.1-5,2.2-7.1,7.2-7.3c4.1-0.1,8.2-0.1,12.3,0
	c6,0.1,7.9,1.9,8,7.9c0.1,7.9,0.1,15.7,0,23.6c-0.1,3,0.9,4.2,3.9,3.9c1.3-0.1,2.6-0.2,3.9,0c3.2,0.4,4.2-0.9,4.1-4.1
	c-0.2-12.1-0.2-24.2,0-36.3c0-3.1-0.9-4.6-3.9-5.7c-14.4-4.9-28.7-10-43.1-15.2c-3-1.1-5.6-0.9-8.6,0.1C53.4,38.6,39,43.7,24.6,48.6
	c-3.1,1.1-3.9,2.7-3.8,5.7c0.1,11.8,0.2,23.6,0,35.4c-0.1,3.7,0.8,5.2,4.8,5C34.5,94.4,43.3,94.6,52.2,94.6z M73.8,98.5
	c-15.2,0-30.4-0.1-45.7,0C15.4,98.7,17,96,16.9,110.7c0,1.5,0.1,3.1,2,3.4c2.3,0.4,2-1.6,2.5-2.8c2.1-5.5,6.1-8.7,11.2-8.7
	c5.1-0.1,9.4,3.1,11.4,8.5c0.5,1.2,0.1,3,2.3,3.2c2.6,0.2,2.2-1.9,2.8-3.3c2-5.3,6.3-8.5,11.4-8.5c5,0.1,9.5,3.1,10.9,8.4
	c0.9,3.3,2.6,3.4,5.2,3.4c14.7-0.1,29.5,0,44.2-0.1c11.9-0.1,10,1.8,10.4-10.4c0.1-4-1.2-5.4-5.3-5.4
	C108.5,98.6,91.1,98.5,73.8,98.5z M131,44.4c0.7-3-1.2-3.9-3.6-4.8c-14.7-5.1-29.4-10-43.9-15.7c-7.8-3.1-14.7-3.2-22.6-0.1
	c-14.7,5.8-29.8,10.9-44.8,15.9c-4.2,1.4-3.7,4.5-2.9,7.1c0.9,3.2,3.4,0.5,4.7,0C33.9,41.4,49.8,35.7,65.6,30
	c4.4-1.6,8.4-1.7,12.9-0.1c16.1,5.9,32.4,11.5,48.5,17.3C130,48.3,131.7,48.3,131,44.4z M107.4,79.2c0-17,0-17-15.6-16
	c-0.2,0-0.3,0-0.5,0c-2.5-0.1-3.6,1.1-3.6,3.6c0,8.3,0,16.7,0,25c0,1.7,0.4,2.9,2.4,2.8c5.5-0.2,12.1,2,16.3-0.9
	c3.1-2.2,0.6-8.9,1-13.6C107.5,79.8,107.4,79.5,107.4,79.2z M40.5,114.3c0-4.3-3.5-7.9-7.7-7.9c-4.2,0-7.9,3.6-7.9,7.8
	c0,4.2,3.5,7.8,7.8,7.8C37,122.1,40.5,118.7,40.5,114.3z M68,114.2c0-4.3-3.6-7.8-7.8-7.8c-4.2,0.1-7.8,3.7-7.8,7.9
	c0,4.2,3.7,7.7,7.9,7.7C64.6,122.1,68.1,118.6,68,114.2z"/>
<path d="M52.3,82.8c-4.2,0-8.5,0-12.7,0c-4.3,0-6.7-2.2-6.8-6.6c-0.1-3.4-0.1-6.9,0-10.3c0.1-4.3,2.5-6.6,6.8-6.6
	c8.7-0.1,17.3-0.1,26,0c4.1,0,6.4,2.3,6.5,6.4c0.1,3.6,0.1,7.2,0,10.8c-0.1,4.2-2.4,6.3-6.5,6.3C61.1,82.8,56.7,82.8,52.3,82.8z
	 M52.5,78.9c1.5,0,2.9,0,4.4,0c12.9-0.3,11,2.8,11.2-12c0-2.8-1.2-3.8-3.9-3.7c-7.8,0.1-15.7,0-23.5,0c-1.5,0-3.4-0.2-3.7,1.6
	c-0.8,4.2-0.8,8.4,0,12.6c0.3,1.8,2.3,1.5,3.7,1.5C44.7,78.9,48.6,78.9,52.5,78.9z"/>
<path d="M76,106.5c-0.2,1.5,0.3,3.6-2.1,3.5c-1.9-0.1-1.8-1.9-1.8-3.3c0-1.6-0.3-3.7,1.9-3.8C76.2,102.8,75.8,105,76,106.5z"/>
<path d="M81.9,106c0.1-1.5,0.2-3.3,2.1-3.1c2.5,0.3,1.7,2.6,1.8,4.2c0.1,1.5-0.1,3.3-2.2,2.9C81.4,109.6,82,107.5,81.9,106z"/>
<path d="M95.6,106.4c-0.2,1.4,0.5,3.5-1.9,3.6c-2,0.1-2-1.7-2-3.1c0-1.7-0.4-4,2.2-4C95.8,102.9,95.5,104.9,95.6,106.4z"/>
<path d="M105.5,106.4c-0.1,1.6,0.2,3.5-1.8,3.6c-2.3,0.1-2.1-2-2.1-3.5c0-1.6-0.2-3.7,2.1-3.6C105.9,103,105.2,105.2,105.5,106.4z"
	/>
<path d="M115.3,106.3c-0.2,1.4,0.5,3.5-1.9,3.7c-2,0.1-2.1-1.7-2-3.1c0-1.7-0.4-4,2.1-4C115.4,102.9,115.2,104.8,115.3,106.3z"/>
<path d="M125.1,106.4c-0.2,1.4,0.4,3.5-2,3.6c-2,0-1.9-1.8-1.9-3.2c0-1.6-0.3-3.7,1.8-3.9C125.3,102.7,125,104.8,125.1,106.4z"/>
<path d="M99.6,78.5c0.1-1.5,0.2-3.3,2.1-3.1c2.5,0.3,1.7,2.6,1.8,4.2c0.1,1.5-0.1,3.3-2.2,2.9C99.1,82,99.7,80,99.6,78.5z"/>
<path d="M36.5,114.5c-0.4,2.2-1.6,3.6-3.9,3.5c-2.2-0.1-3.8-1.4-3.7-3.7c0-2.4,1.7-4,4.1-3.8C35.2,110.6,36.4,112.2,36.5,114.5z"/>
<path d="M60.3,110.4c2.2,0.3,3.6,1.5,3.7,3.8c0.1,2.3-1.3,3.8-3.5,3.9c-2.5,0.1-4.1-1.3-4-3.8C56.5,112,58.1,110.8,60.3,110.4z"/>
</svg>
