<?xml version="1.0" encoding="utf-8"?>
<!-- Generator: Adobe Illustrator 25.0.0, SVG Export Plug-In . SVG Version: 6.00 Build 0)  -->
<svg version="1.1" id="Слой_1" xmlns="http://www.w3.org/2000/svg" xmlns:xlink="http://www.w3.org/1999/xlink" x="0px" y="0px"
	 viewBox="0 0 141.7 141.7" style="enable-background:new 0 0 141.7 141.7;" xml:space="preserve">
<style type="text/css">
	.st0{fill:#050506;}
	.st1{fill:#303031;}
	.st2{fill:#373738;}
	.st3{fill:#434343;}
</style>
<g>
	<path class="st0" d="M104.7,87.6c-3.4-1.1-3.8-3.3-3.8-6c0.1-13.9-0.1-27.7,0.1-41.7c0-3.4-0.9-4.2-4.1-4.1
		c-6.3,0.3-12.6,0-18.9,0.1c-2.5,0.1-3.3-0.8-3.3-3.3c0.1-6.6,0-13.3,0.1-19.9c0-2.1,0-3.4-2.9-3.4c-18.2,0.1-36.3,0.1-54.4,0
		c-2.7,0-2.9,1.1-2.9,3.3c0.1,34.3,0.1,68.4,0,102.7c0,3.3,1.4,3.4,3.9,3.4c22.5-0.1,45.2,0,67.7-0.1c2.6,0,5.1-0.1,6.2,3
		c-0.7,1.3-1.8,0.7-2.8,0.7c-24.9,0-49.8,0-74.8,0.1c-3,0-3.9-0.8-3.9-3.9c0.1-36.5,0.1-72.9,0-109.4c0-3.3,1-3.8,3.9-3.8
		c19.9,0.1,39.7,0.1,59.6,0c2.2,0,3.8,0.5,5.4,2.2c7.8,8.1,15.7,16,23.6,23.9c0.8,0.8,1.5,1.5,1.5,2.7
		C104.7,52.2,104.7,69.8,104.7,87.6z"/>
	<path class="st1" d="M23.8,13.4c1.2,0.1,2,0.8,2,2.1c-0.1,1-0.8,1.6-1.8,1.7c-1.3,0-2-0.8-2-2C22,14.1,22.6,13.5,23.8,13.4z"/>
	<path class="st1" d="M23.7,24.7C22.6,24.6,22,24,22,23c0-1.3,0.7-2,2-2c1,0.1,1.7,0.8,1.7,1.7C25.8,24.1,24.9,24.6,23.7,24.7z"/>
	<path class="st1" d="M25.8,30.6c-0.3,1.2-1.1,2-2.3,1.7c-1-0.1-1.6-0.9-1.5-2c0.1-1.3,1-2,2.2-1.6C25.1,28.9,25.7,29.5,25.8,30.6z"
		/>
	<path class="st2" d="M23.8,88.7c1.2,0.2,2,0.9,1.8,2.2c-0.1,1-0.9,1.6-1.8,1.6c-1.3,0-2-0.9-1.8-2.1C22.1,89.3,22.7,88.7,23.8,88.7
		z"/>
	<path class="st2" d="M23.8,100c-1.1-0.1-1.7-0.5-1.8-1.6c-0.1-1.3,0.5-2.1,1.7-2.1c1,0,1.7,0.5,1.8,1.6C25.8,99.2,25,99.8,23.8,100
		z"/>
	<path class="st2" d="M23.6,103.8c1.2,0.1,2.1,0.8,2.1,2c0,1-0.8,1.7-1.7,1.7c-1.3,0.1-2-0.8-2-2C22,104.6,22.6,104,23.6,103.8z"/>
	<path class="st2" d="M25.8,113.3c-0.3,1.4-1.2,2.1-2.4,1.8c-1-0.2-1.5-1-1.4-2.1c0.1-1.1,0.8-1.6,1.8-1.6
		C25,111.5,25.6,112.3,25.8,113.3z"/>
	<path class="st3" d="M25.8,37.8c-0.2,1.3-1,2.1-2.2,1.8c-1-0.1-1.6-0.9-1.6-2s0.7-1.7,1.6-1.8C24.9,35.9,25.6,36.6,25.8,37.8z"/>
	<path class="st3" d="M23.8,43.5c1.2,0.2,2,0.8,2,1.8c0,1.3-0.9,2.1-2.1,2c-1.3-0.1-1.8-1.1-1.6-2.3C22.1,43.9,23,43.6,23.8,43.5z"
		/>
	<path class="st3" d="M25.8,52.9c-0.2,1.3-0.9,2.1-2.2,2c-1-0.1-1.6-0.8-1.6-1.8s0.5-1.7,1.6-1.8C24.8,51,25.6,51.7,25.8,52.9z"/>
	<path class="st3" d="M25.8,60.4c-0.3,1.5-1.2,2.2-2.4,2c-1-0.2-1.5-1-1.4-2.1s0.8-1.6,1.8-1.6C25.1,58.7,25.6,59.6,25.8,60.4z"/>
	<path class="st3" d="M23.7,70.1c-1.3-0.2-2-1-1.7-2.3c0.1-1.1,0.9-1.6,2-1.5c1.1,0.1,1.7,0.7,1.8,1.7C25.8,69.2,25,69.9,23.7,70.1z
		"/>
	<path class="st3" d="M25.8,75.6c-0.1,1.2-0.8,2.1-2.1,2c-1.1,0-1.6-0.7-1.7-1.7c-0.1-1.1,0.4-1.8,1.5-2
		C24.7,73.7,25.5,74.3,25.8,75.6z"/>
	<path class="st3" d="M24.1,81.4c1.1,0.2,1.7,0.8,1.7,1.8c0,1.3-0.9,2.1-2.1,2c-1.3-0.1-1.8-1.1-1.6-2.3
		C22.2,81.9,23,81.3,24.1,81.4z"/>
	<path class="st0" d="M126.4,118.2c-9.9-9.9-20.5-19.4-29.6-29.9C88,78.1,76,75.7,63.7,70.3c2.5,6.5,4.8,11.6,6.5,17
		c1.6,5.3,4.8,9.4,8.7,13.2c12.3,12.1,24.4,24.4,36.5,36.6c0.7,0.7,1.6,1.1,1.4,2.3c3.2,0,6.3,0,9.5,0
		C135.4,131.2,135.4,127.1,126.4,118.2z M78.1,90.1c-0.4,1.5-2.3,1.3-2.6-0.3c-0.7-3.3-5.2-6.7-2-9.7c3.2-2.8,6.7,1.4,10.2,2.2
		c0.4,0.1,1,0.5,0.8,1.6c-0.2,0.2-0.5,1.1-1,1.1C80.3,85.2,79,87.2,78.1,90.1z M99.9,116.3c-5.5-5.5-10.7-11.6-16.6-16.6
		c-4.2-3.5-3.4-6.3-0.5-9.4c1.4-1.8,3.8-2.9,5.9-4.4c0.9,0.8,1.6,1.3,2.3,2c7.5,7.6,15,15.2,22.6,22.7c2.1,2.1,2.5,3.3,0.2,5.5
		C106.7,123.1,106.9,123.2,99.9,116.3z M114.5,130.1c-2-0.4-2.9-2.2-4.1-3.6c-1.1-1.2,0.1-2,0.9-2.7c2-2.1,3.9-4,6-6
		c0.8-0.8,1.4-1.8,2.7-0.9c1.4,1.2,2.9,2.3,4.4,3.4C123.3,121.9,115.1,130.2,114.5,130.1z M122.1,135.9c-1.6,0-3.3-0.5-4.1-1.8
		c-1.1-1.6,0.8-2.4,1.6-3.4c1.5-1.6,3-3.2,4.7-4.7c0.8-0.8,1.4-2.1,2.6-1.7c1.4,0.4,2,2,2.3,3.4C129.9,131.4,126,136.1,122.1,135.9z
		"/>
</g>
</svg>
