<?xml version="1.0" encoding="utf-8"?>
<!-- Generator: Adobe Illustrator 25.0.0, SVG Export Plug-In . SVG Version: 6.00 Build 0)  -->
<svg version="1.1" id="Слой_1" xmlns="http://www.w3.org/2000/svg" xmlns:xlink="http://www.w3.org/1999/xlink" x="0px" y="0px"
	 viewBox="0 0 141.7 141.7" style="enable-background:new 0 0 141.7 141.7;" xml:space="preserve">
<g>
	<path d="M87.3,102.9c4.1,1.6,9.2-1.5,11.2,1.9c1.7,2.9,0.5,7.4,0.5,11.2c0.1,3.4-1,7.1,3.9,8.8c2.4,0.8,3.2,3.9,2.3,6.6
		c-1,3.1-3.3,4.7-6.6,4.7c-7.2,0-14.5,0-21.7,0c-10.9,0-21.7-0.1-32.6,0c-3.8,0-7-0.9-8-4.9c-1-3.7,0.9-6.4,4.3-7.7
		c2.1-0.8,1.9-2.3,1.9-3.9c0-3.6,0.3-7.3-0.1-10.8c-0.5-4.5,1.3-5.8,5.5-5.3c1.9,0.2,3.9,0,6.7,0c-4-6.5-6.4-14.2-11.7-17.7
		c-5.8-3.9-6.3-10.7-11.7-14.3c-5.2-3.5-9.9-7.8-14.7-12C12.1,55.5,8.2,51,6.5,45c-1.5-5.5-1.1-10.5,3.3-14.4
		c4.3-3.8,9.1-4.1,14.1-1.3c0.4,0.2,1,0.3,2.1,0.5c-1.3-5.1,1.1-10.3-3.8-14.6c-3-2.6-0.9-7.7,3.2-9c1.5-0.5,3.2-0.5,4.8-0.5
		c27.1,0,54.3,0,81.4,0c3.2,0,6.2,0.1,8.1,3.2c1.2,2,2,4.6,0.1,6c-5.3,3.9-2.7,9.6-4.1,14.2c0.8,0.3,1.2,0.6,1.4,0.5
		c5.3-2.9,10.5-3.1,15.1,1.1c4.9,4.6,4.7,10.3,2.6,16.1c-2.2,6-6.6,10.3-11.4,14.3c-5.1,4.3-11.6,7.5-15,13.1
		c-3.9,6.4-9.8,11.1-13.4,17.6C92.7,95.5,90,98.9,87.3,102.9z M71.1,10c-11.4,0-22.8,0-34.2,0c-2.9,0-5.8,0-8.7,0
		c-1.2,0-2.2,0.4-2.7,1.5c-0.4,0.9-0.1,2.2,0.8,2.3c4.5,0.6,3.1,4.1,3.2,6.6C30.8,49.9,40,76.4,58,99.9c1.3,1.7,2.3,3.4,5,3.7
		c16.1,1.8,19.1,0.5,27.9-13.2c13.8-21.4,20.4-45,21.3-70.3c0.1-1.8-1.1-4.2,1.1-5.4c1.3-0.8,3.6-0.7,2.9-3c-0.7-2.2-3-1.6-4.7-1.6
		C97.9,10,84.5,10,71.1,10z M70.8,131.7c2.9,0,5.8,0,8.7,0c6.1,0,12.3,0,18.4,0c1.3,0,2.7-0.2,3.1-1.7c0.3-1.2-0.5-2.5-1.6-2.4
		c-6.2,0.5-4.5-3.9-4.6-7.2c-0.1-3.1-0.1-6.1,0-9.2c0.1-2.5-0.7-3.5-3.4-3.5c-13.7,0.1-27.4,0.1-41.2,0c-2.6,0-3.5,1-3.4,3.5
		c0.1,4.3,0,8.7,0,13c0,1.8,0,3.2-2.5,3.1c-1.8-0.1-4.1,0.1-3.7,2.6c0.3,2,2.5,1.7,4.1,1.7C53.5,131.7,62.2,131.7,70.8,131.7z
		 M27.9,44.9c-0.7,1-0.9,1.5-1.3,1.9c-1.3,1.3-2.5,4-4.5,2.5c-2.5-1.9,0-3.6,1.3-5.2c2.4-2.8,2.4-6,0.3-9c-1.9-2.7-4.7-4-8.1-3
		c-3.4,1-5.5,3.5-5.6,7.1c-0.2,5.2,2.2,9.4,5.5,13.1c5.6,6.1,12.5,10.6,19.6,16.8C32.6,60.6,30.4,53.2,27.9,44.9z M107.6,66.7
		c6.9-4.3,13.5-8.7,18.7-14.7c3.3-3.7,5.6-8,5.2-13.2c-0.3-3.4-2.3-5.7-5.5-6.7c-3.3-1-6.1,0.2-8.1,2.9c-1.9,2.5-2,5.3-0.5,8.1
		c1,1.9,5.2,3.5,2.1,6c-2.7,2.2-3.5-2.8-6-3C111.6,53,109.6,59.8,107.6,66.7z"/>
	<path d="M70.7,62.1c-2,0-4,0-6,0c-1.3,0-2.5-0.1-2.5-1.9c0-1.6,0.6-2.6,2.2-2.3c4.5,0.7,4.5-2,4.3-5.2c-0.2-2.7-0.1-5.4,0-8.1
		c0-3.4,0.8-7.3-4.8-6.4c-1.4,0.2-1.7-1-1.6-2.2c0-1,0.4-1.9,1.5-1.9c4.7-0.1,9.4-0.1,14.1,0c1.4,0,1.7,1,1.7,2.2
		c0,1.4-0.6,2.2-1.9,2c-4.8-0.7-4.8,2.2-4.6,5.6c0.1,2.7,0,5.4,0,8.1c0,3.2-0.9,6.9,4.6,6c1.3-0.2,1.8,0.8,1.9,2
		c0.1,1.7-0.8,2.2-2.3,2.2C75,62.1,72.9,62.1,70.7,62.1z"/>
</g>
</svg>
