<?xml version="1.0" encoding="utf-8"?>
<!-- Generator: Adobe Illustrator 25.0.0, SVG Export Plug-In . SVG Version: 6.00 Build 0)  -->
<svg version="1.1" id="Слой_1" xmlns="http://www.w3.org/2000/svg" xmlns:xlink="http://www.w3.org/1999/xlink" x="0px" y="0px"
	 viewBox="0 0 141.7 141.7" style="enable-background:new 0 0 141.7 141.7;" xml:space="preserve">
<g>
	<path d="M7.4,129.3c-3-2.9-2.3-5.1,0.9-7.5c9.7-7.1,19.8-8.1,30.4-2.6c3.8,2,7.1,2.7,11.1,0.7c3.3-1.7,7.4-1.9,10.5-0.1
		c5.9,3.2,12,2.7,18.2,2.7c5.4,0,10.8-0.1,16.2,0c2.7,0.1,3.8-0.8,3.8-3.6c-0.1-21.1,0.3-42.3-0.2-63.4C98,37.5,83.8,23.7,65.3,22.2
		c-18.2-1.5-33.8,9.6-37.7,26.9c-0.6,2.5-0.7,5.2-0.7,7.8c-0.1,15.4,0,30.8,0,46.2c0,1.5,0,3-0.4,4.4c-0.3,1.4-1.4,2.2-2.9,2.2
		c-1.5,0-2.5-0.8-3-2.1c-0.2-0.6-0.4-1.3-0.4-1.9c0.4-18.6-1.5-37.4,0.9-55.9c2.4-19.2,19.5-33.4,39-33.5c9.8,0,19.8-0.9,29.5,0.6
		c20.2,3.2,33.4,20.1,33.5,41.2c0.1,19.8,0,39.6,0.1,59.4c0,1.8-0.7,3.9,0.8,5.2c4.1,3.3,1.8,5.1-1.4,6.8c-18,0-36.1,0-54.1,0
		c-3.2-1.2-6.3-2.5-9.5-3.7c-2.2-0.9-4.6-1-6.7-0.1c-5.6,2.6-10.9,1.6-16.5-0.5c-9.4-3.5-18.5-2.8-26.4,4.3
		C8.7,129.3,8,129.3,7.4,129.3z M112.3,109.7c-0.6-1.7-1.5-3.1-3.5-2.9c-1.9,0.1-3.1,1.4-2.9,3.3c0.1,1.8,1.4,3,3.3,2.9
		C111.1,112.7,112.1,111.5,112.3,109.7z"/>
	<path d="M134.4,129.3c-0.5-0.8-1-1.6-1.4-2.5c-0.7-1.4,0-2.6,1.1-3.4c1.2-0.9,2.4-0.9,3.6,0c1.1,0.9,1.8,2,1.1,3.4
		c-0.4,0.9-0.9,1.7-1.4,2.5C136.3,129.3,135.3,129.3,134.4,129.3z"/>
	<path d="M74.9,64.9c-0.6,2.8-2.6,3.7-5.1,3.3c-4.6-0.7-6,1.1-5.6,5.6c0.4,3.7,0.1,7.5,0.1,11.3c0,2.4-0.9,4.5-3.5,4.4
		c-2.3-0.1-3.1-2.1-3.1-4.3c0-4.4-0.1-8.8,0-13.2c0.1-2.7-0.8-4-3.6-3.7c-1.5,0.1-3,0.1-4.4-0.2c-1.7-0.3-2.4-1.6-2.4-3.2
		c0.1-1.5,0.9-2.4,2.4-2.7c0.6-0.1,1.3-0.3,1.9-0.2c5.2,0.9,6.8-1.5,6-6.3c-0.1-0.5,0-1,0.1-1.5c0.4-1.6,1.3-2.6,3-2.7
		c2,0,3,1.1,3.3,2.9c0.2,1,0.3,2,0.1,2.9c-0.6,3.8,1.1,4.9,4.7,4.6C71.4,61.6,74,61.6,74.9,64.9z"/>
	<path d="M48,116.2c-1.8-0.4-3-1.5-2.9-3.3c0.1-1.8,1.4-3.1,3.2-2.9c1.8,0.1,3.1,1.3,3,3.2C51.1,114.9,49.8,116,48,116.2z"/>
	<path d="M51.3,43.7c-0.5,1.9-1.4,3-3.4,2.9c-2-0.2-3-1.5-2.8-3.3c0.2-1.6,1.3-2.6,3.1-2.5C50.2,40.8,51.1,42,51.3,43.7z"/>
	<path d="M83.2,91.5c-0.2,2.1-1.3,3.2-3.2,3.1c-2-0.1-2.9-1.4-2.8-3.2c0.1-1.7,1.1-2.6,2.9-2.6C82.1,88.8,83,89.8,83.2,91.5z"/>
</g>
</svg>
