<?xml version="1.0" encoding="utf-8"?>
<!-- Generator: Adobe Illustrator 25.0.0, SVG Export Plug-In . SVG Version: 6.00 Build 0)  -->
<svg version="1.1" id="Слой_1" xmlns="http://www.w3.org/2000/svg" xmlns:xlink="http://www.w3.org/1999/xlink" x="0px" y="0px"
	 viewBox="0 0 141.7 141.7" style="enable-background:new 0 0 141.7 141.7;" xml:space="preserve">
<g>
	<path d="M6.1,59.6c0-4.2,0-8.4,0-12.6c2-1.9,1.8-4.7,2.7-7.1c7.1-18.2,27-27.6,45.5-21.8c6.2,2,10.1,4.7,7.2,12
		c-1,2.6-1,5.5-1.7,8.2c-1.2,4.5,0,6.7,5,6c5-0.6,5.4,1.6,3.8,5.8c-2.3,6.1-4.2,12.3-6.6,19.2c10.2-1.5,8.6,4,7,9.9
		c-1.5,5.6-2.6,11.2-3.8,16.9c0.6,0.2,1.1,0.4,1.7,0.5C73,87,79,77.4,85,67.6c0.6-1,2-3.1-0.1-3.3c-7.4-0.6-2.9-4.7-2.1-7.2
		c1.3-4.2,3.1-8.4,4.9-12.4c1.9-4.2,2-6.7-3.7-6c-3.9,0.5-4.2-1.6-3.3-4.6c0.7-2.2,1.4-4.5,1.5-6.8c0.4-6.5,4-9.1,10.2-10.2
		c21.9-4.2,42.9,12.4,43.4,34.8c0.4,20.7-10.2,35.9-25.1,48.9c-11.1,9.8-24,17.1-35.8,26c-2.7,2.1-4.9,1.8-7.5-0.2
		c-6.4-4.7-13.1-9.1-19.6-13.6C28.2,99.6,11.3,84.2,6.1,59.6z"/>
</g>
</svg>
