<?xml version="1.0" encoding="utf-8"?>
<!-- Generator: Adobe Illustrator 25.0.0, SVG Export Plug-In . SVG Version: 6.00 Build 0)  -->
<svg version="1.1" id="Слой_1" xmlns="http://www.w3.org/2000/svg" xmlns:xlink="http://www.w3.org/1999/xlink" x="0px" y="0px"
	 viewBox="0 0 141.7 141.7" style="enable-background:new 0 0 141.7 141.7;" xml:space="preserve">
<g>
	<path d="M24.2,87.9c-1.5,0.8-2.7,1.5-3.8,2.2c-1.6,0.9-2.5,0.7-3.4-0.8c-2.5-4.4-5.1-8.8-7.6-13.2c-0.8-1.4-0.6-2.3,0.8-3.1
		c7.5-4.3,15-8.7,22.5-13c1.2-0.7,2.2-0.4,2.8,0.6s0.2,2-1,2.7c-6.5,3.8-13.1,7.6-19.7,11.4c-0.4,0.3-0.9,0.5-1.4,0.9
		c2.1,3.6,4.1,7.1,6.2,10.7c0.4-0.2,0.7-0.3,1-0.4C33.9,78,47.3,70.3,60.7,62.6c1.2-0.7,1.7-1.4,1.7-2.9c-0.1-3.6,0-7.2,0-10.9
		c0-0.5,0-0.9-0.1-1.5c-0.6,0.3-1,0.4-1.4,0.7C55,51.4,49,54.9,43.1,58.3c-0.2,0.1-0.5,0.3-0.7,0.4c-1.2,0.6-2.3,0.4-2.8-0.6
		c-0.5-1.1-0.1-2,0.9-2.6c2.1-1.2,4.2-2.4,6.2-3.6c5.3-3.1,10.6-6.1,15.9-9.2c2.2-1.3,3.4-0.6,3.4,1.9c0,28,0,56,0,84
		c0,2.1-0.6,2.6-2.6,2.6c-12.2,0-24.4,0-36.6,0c-2.1,0-2.7-0.6-2.7-2.7c0-12.8,0-25.7,0-38.5C24.2,89.4,24.2,88.8,24.2,87.9z
		 M62.3,66c-0.4,0.2-0.6,0.2-0.7,0.3c-10.9,6.3-21.8,12.6-32.8,18.9c-0.9,0.5-0.8,1.1-0.8,1.9c0,12.9,0,25.7,0,38.6
		c0,0.6,0,1.2,0,1.8c7.7,0,15.1,0,22.7,0c0-0.6,0-1.2,0-1.7c0-7.3,0-14.6,0-21.9c0-4.2,0-4.2,4.2-4.2c2.4,0,4.9,0,7.3,0
		C62.3,88.3,62.3,77.3,62.3,66z M54.5,127.5c2.7,0,5.2,0,7.7,0c0-8.1,0-16.1,0-24.1c-2.6,0-5.2,0-7.7,0
		C54.5,111.5,54.5,119.4,54.5,127.5z"/>
	<path d="M117.4,87.9c0,1.5,0,2.7,0,3.8c0,12.2,0,24.4,0,36.6c0,2.5-0.4,3-2.9,3c-12,0-24.1,0-36.1,0c-2.2,0-2.7-0.5-2.7-2.7
		c0-27.9,0-55.8,0-83.7c0-0.6,0-1.2,0.2-1.7c0.4-1.1,1.6-1.4,2.8-0.7c4.2,2.4,8.4,4.8,12.6,7.2c13.2,7.6,26.4,15.3,39.6,22.9
		c2.2,1.2,2.3,1.9,1.1,4c-2.4,4.1-4.7,8.2-7.1,12.4c-1.1,1.9-1.9,2.1-3.8,1C119.9,89.3,118.8,88.7,117.4,87.9z M79.3,47.1
		c0,0.9,0,1.4,0,1.9c0,3.7,0.1,7.3,0,11c0,1.1,0.3,1.8,1.3,2.3c3.9,2.2,7.8,4.5,11.8,6.7c1.7,1,3.4,1.9,5,2.9c1,0.6,1.2,1.6,0.6,2.6
		s-1.5,1-2.5,0.6c-0.4-0.2-0.7-0.4-1.1-0.6c-3.9-2.2-7.7-4.5-11.6-6.7c-1.1-0.6-2.2-1.2-3.4-1.9c0,11.4,0,22.5,0,33.7
		c3,0,5.8,0,8.7,0c2.3,0,2.8,0.5,2.8,2.8c0,7.8,0,15.6,0,23.4c0,0.5,0,1.1,0,1.6c7.7,0,15.2,0,22.6,0c0-0.3,0.1-0.5,0.1-0.6
		c0-13.4,0-26.8,0-40.2c0-0.5-0.5-1.1-0.9-1.4c-1.4-0.9-2.9-1.7-4.4-2.6c-1.9-1.1-3.8-2.1-5.6-3.3c-0.9-0.6-1.2-1.5-0.6-2.4
		c0.5-0.9,1.4-1.2,2.4-0.7c0.4,0.2,0.8,0.4,1.2,0.7c4,2.3,8.1,4.7,12.1,7c1.4,0.8,2.7,1.6,4.2,2.4c2.1-3.7,4.1-7.2,6.2-10.8
		C112,66,95.8,56.7,79.3,47.1z M79.4,103.4c0,8.1,0,16.1,0,24.1c2.6,0,5.2,0,7.7,0c0-8.1,0-16,0-24.1
		C84.5,103.4,82,103.4,79.4,103.4z"/>
	<path d="M68.8,28.1c0-5.2,0-10.2,0-15.3c-2.1,0-4.1,0-6.5,0c1,1.3,1.9,2.6,2.9,3.7c0.9,1.1,1.1,2.2,0.6,3.5
		c-1.1,3.2-4.2,5.4-7.7,5.3c-3.4-0.1-6.5-2.6-7.2-5.9c-0.1-0.8,0.1-1.8,0.5-2.5c1.6-2.3,3.4-4.4,5-6.6c0.7-1,1.6-1.4,2.8-1.4
		c2.6,0.1,5.3,0,7.9,0c0.5,0,1,0,1.7,0c0-0.9,0-1.6,0-2.4c0.1-1.1,0.7-1.9,1.9-1.9c1.1,0,1.7,0.8,1.8,1.8c0.1,0.7,0,1.5,0,2.4
		c2.8,0,5.4,0.2,8,0c2.4-0.2,4.1,0.6,5.4,2.7c1.2,1.9,2.7,3.5,4,5.3c0.5,0.7,0.7,1.8,0.5,2.6c-0.7,3.5-4,5.9-7.5,5.9
		s-6.6-2.5-7.5-5.8c-0.3-1-0.1-1.9,0.6-2.8c1-1.3,2-2.6,3.2-4.1c-1.3,0-2.4,0-3.4,0s-2,0-3.2,0c0,5.2,0,10.2,0,15.4
		c1.8,0,3.6-0.1,5.3,0c2.1,0.1,3.6,1.2,4.5,3.2c0.9,1.9,0.6,3.7-0.6,5.3c-1.1,1.5-2.6,2.2-4.4,2.2c-4.5,0-9,0-13.5,0
		c-3.1,0-5.4-2.3-5.4-5.2c0-3,2.1-5.3,5.3-5.5C65.5,28,67.1,28.1,68.8,28.1z M70.8,35c2.1,0,4.2,0,6.3,0c1.4,0,2.2-0.6,2.1-1.7
		c-0.1-1.3-1-1.6-2.1-1.6c-4.2,0-8.5,0-12.7,0c-1.5,0-2.2,0.6-2.1,1.6c0.1,1.3,1,1.6,2.1,1.6C66.5,35,68.7,35,70.8,35z M83,13.9
		c-1.2,1.6-2.4,3-3.4,4.5c-0.2,0.3-0.2,0.9,0,1.2c0.7,1.4,2,2,3.5,2s2.7-0.7,3.5-2c0.2-0.3,0.1-0.9-0.1-1.2
		C85.4,16.9,84.3,15.5,83,13.9z M58.6,13.9c-1.3,1.6-2.5,3.1-3.5,4.6c-0.2,0.2-0.1,0.8,0,1.1c0.7,1.3,1.9,2,3.5,2
		c1.5,0,2.7-0.6,3.5-2c0.2-0.3,0.2-0.9,0-1.1C61,17,59.8,15.5,58.6,13.9z"/>
	<path d="M31.5,95.4c0-2,0-4,0-6.1c0-1.7,0.6-2.3,2.3-2.3c3.7,0,7.3,0,11,0c1.7,0,2.3,0.7,2.3,2.3c0,4.1,0,8.2,0,12.3
		c0,1.6-0.7,2.3-2.3,2.3c-3.6,0-7.2,0-10.9,0c-1.7,0-2.4-0.7-2.4-2.4C31.5,99.4,31.5,97.4,31.5,95.4z M35.3,100c2.8,0,5.4,0,8,0
		c0-3.1,0-6.2,0-9.2c-2.7,0-5.4,0-8,0C35.3,94,35.3,97,35.3,100z"/>
	<path d="M110.1,95.4c0,2.1,0,4.1,0,6.2c0,1.6-0.7,2.2-2.2,2.2c-3.7,0-7.4,0-11.1,0c-1.5,0-2.2-0.7-2.2-2.2c0-4.2,0-8.4,0-12.6
		c0-1.5,0.7-2.2,2.2-2.2c3.8,0,7.5,0,11.3,0c1.5,0,2.1,0.7,2.1,2.2C110.1,91.3,110.1,93.3,110.1,95.4z M98.3,100.1c2.7,0,5.4,0,8,0
		c0-3.1,0-6.2,0-9.2c-2.7,0-5.4,0-8,0C98.3,93.9,98.3,97,98.3,100.1z"/>
</g>
</svg>
