<?xml version="1.0" encoding="utf-8"?>
<!-- Generator: Adobe Illustrator 25.0.0, SVG Export Plug-In . SVG Version: 6.00 Build 0)  -->
<svg version="1.1" id="Слой_1" xmlns="http://www.w3.org/2000/svg" xmlns:xlink="http://www.w3.org/1999/xlink" x="0px" y="0px"
	 viewBox="0 0 141.7 141.7" style="enable-background:new 0 0 141.7 141.7;" xml:space="preserve">
<style type="text/css">
	.st0{fill:#030304;}
</style>
<g>
	<path class="st0" d="M127.2,45.2c-11.9,0-23.9,0-35.9,0c-1,0-1.3,0.3-1.3,1.3c0,7.4,0,14.7,0,22c0,0.9,0.2,1.8,0.5,2.6
		c0.9,2.2,1.7,4.5,2.5,6.7c0.1,0.3,0.4,0.8-0.3,0.8c-1.6,0-3.1,0-4.6,0c-0.4,0-0.6-0.4-0.8-0.7c-1-1.3-1.9-2.7-2.9-4
		C67.9,51,51.5,28.1,35.1,5.2c-0.6-0.8-1-1.2-2-0.5c-3,1.9-6.1,3.8-9.3,5.6c-1.1,0.6-1.5,1.2-0.6,2.2c0.4,0.5,0.3,1.1,0.3,1.6
		c0,8.8,0,17.7,0,26.5c0,13.2,0,26.4,0,39.6c0,0.9-0.1,1.3-1.1,1.4c-2.6,0.4-5,1.2-7.3,2.5c-13.2,7.5-15.6,25.6-4.8,36.5
		c7.9,7.9,21,9.1,29.6,2.5c8.2-6.3,10.9-14.8,8.5-24.7c-2.3-9.5-8.9-14.8-18.4-16.5c-1.1-0.2-1.4-0.6-1.4-1.7c0-18.7,0-37.3,0-56
		c0-0.5,0-0.9,0-1.3c0.1,0,0.2,0,0.3,0c0.3,0.4,0.5,0.8,0.7,1.2c11.3,21.7,22.6,43.4,34,64.8c0.6,1.1,1.1,2.3,0.9,3.6
		c-0.1,0.9,0.2,1.2,1.1,1.2c2.7,0,5.4,0,8.1,0c0.8,0,1,0.2,1,1c0,0.9,0.1,1.9,0,2.8c-0.1,1.1,0.2,1.4,1.3,1.4c11.9,0,23.9,0,35.8,0
		c1,0,1.4-0.1,1.3-1.2c-0.1-0.9,0.1-1.9,0-2.8s0.2-1.1,1.1-1.1c4.3,0,8.6,0,12.9,0c1,0.1,1.3-0.2,1.3-1.2c0-15.4,0-30.8,0-46.2
		C128.4,45.4,128.1,45.2,127.2,45.2z M33.4,23.9c0,0.1-0.1,0.1-0.2,0.1c-1.3-2.5-2.6-5-4-7.6c-0.2-0.3-0.1-0.5,0.2-0.7
		c2-1.3,4.1-2.7,6.4-4.2C35,15.9,34.2,19.9,33.4,23.9z M39.3,17.2c0.1-0.1,0.2-0.1,0.3-0.1c1.5,2.6,2.9,5.1,4.4,7.7
		c0.2,0.4,0.1,0.6-0.2,0.8c-2.4,1.5-4.7,3-7.4,4.8C37.4,25.8,38.4,21.5,39.3,17.2z M44.8,43.3c-0.1,0-0.2,0.1-0.3,0.1
		c-0.6-1.2-1.3-2.3-1.9-3.5c-0.7-1.3-1.4-2.6-2.1-3.9c-0.2-0.4-0.4-0.7,0.1-1.1c2.3-1.4,4.5-2.9,7-4.5
		C46.6,34.9,45.7,39.1,44.8,43.3z M50.8,34.7c1.8,2.7,3.5,5.1,5.1,7.5c0.2,0.3,0.3,0.6-0.1,0.8c-2.5,1.6-5,3.2-7.8,5
		C49,43.5,49.9,39.3,50.8,34.7z M52.4,59c-0.7-1.4-1.4-2.8-2.1-4.2c-0.2-0.4-0.4-0.7,0.1-1.1c2.8-1.9,5.6-3.8,8.4-5.7
		c0.1,0.2,0.1,0.2,0.2,0.3c-1.7,4.4-3.3,8.8-5,13.4C53.2,60.9,52.9,59.9,52.4,59z M57.7,65.1c1.6-4.2,3.3-8.3,4.9-12.5
		c0.2-0.6,0.5-0.5,0.8-0.2c1.5,2,2.9,4,4.3,5.9c0.3,0.4-0.1,0.6-0.3,0.8c-3.1,2.1-6.3,4.1-9.4,6.2C57.8,65.2,57.7,65.1,57.7,65.1z
		 M63.6,78.5c-1.5-2.6-2.8-5-4.2-7.4c-0.2-0.4-0.1-0.6,0.2-0.8c3.4-2.4,6.7-4.8,10.4-7C67.9,68.2,65.8,73.2,63.6,78.5z M80.2,76.7
		c-4.3,2.3-8.5,4.7-12.7,7.2c-0.2-0.5,0.1-0.7,0.2-1c2.2-4.7,4.4-9.3,6.5-14c0.4-0.9,0.7-0.9,1.2-0.1c1.6,2.2,3.2,4.4,4.9,6.7
		C80.6,75.9,80.9,76.3,80.2,76.7z M118.2,69.9c0,0.8-0.2,1.1-1,1.1c-5.3,0-10.6,0-15.9,0c-0.7,0-1.1-0.1-1-0.9c0-4.5,0-9,0-13.4
		c0-0.8,0.3-1,1-1c2.6-0.1,5.2-0.1,7.8-0.1s5.2,0,7.9,0c1,0,1.2,0.3,1.2,1.2C118.2,61.2,118.2,65.5,118.2,69.9z"/>
	<path class="st0" d="M133.3,111.1c-0.2-2.1-1.3-3.9-3.1-5.2c-1.9-1.3-4.1-1.6-6.3-1.6c-18.4,0-36.7,0-55.1,0
		c-1.8,0-3.5,0.1-5.2,0.5c-4,0.9-6.6,3.8-6.8,7.9c-0.2,4.1-0.2,8.2,0,12.3c0.2,3.2,2,5.3,5,6.4c2.4,0.9,4.8,1,7.3,1
		c8.6,0,17.3,0,26,0c9.6,0,19.2,0,28.7,0c5.6,0,8.6-2.4,9.4-7.9C133.9,120.1,133.7,115.6,133.3,111.1z M123.2,120.9
		c0,1-0.2,1.3-1.2,1.3c-9-0.1-18-0.1-27-0.1c-8.9,0-17.8,0-26.8,0c-1,0-1.3-0.2-1.3-1.2c0.1-1.6,0.1-3.3,0-4.9
		c-0.1-1.2,0.2-1.6,1.5-1.5c15.8,0,31.5,0,47.3,0c2.1,0,4.2,0,6.3,0c0.9,0,1.2,0.2,1.2,1.1C123.1,117.4,123.1,119.2,123.2,120.9z"/>
</g>
</svg>
