<?xml version="1.0" encoding="utf-8"?>
<!-- Generator: Adobe Illustrator 25.0.0, SVG Export Plug-In . SVG Version: 6.00 Build 0)  -->
<svg version="1.1" id="Слой_1" xmlns="http://www.w3.org/2000/svg" xmlns:xlink="http://www.w3.org/1999/xlink" x="0px" y="0px"
	 viewBox="0 0 141.7 141.7" style="enable-background:new 0 0 141.7 141.7;" xml:space="preserve">
<style type="text/css">
	.st0{fill:#040404;}
	.st1{fill:#141414;}
	.st2{fill:#1F1F1F;}
	.st3{fill:#282828;}
	.st4{fill:#1D1D1D;}
	.st5{fill:#2B2B2B;}
	.st6{fill:#111111;}
	.st7{fill:#0B0B0B;}
	.st8{fill:#0A0A0A;}
</style>
<g>
	<path class="st0" d="M93.2,75.7c-1.1-1.1-2.2-1.7-0.8-3.2c2.6-2.8,4.7-5.5,9.7-4.4c20.2,4.4,41.8-20.2,35.4-40.3
		c-1.1-3.3-2.8-4.2-5.4-1.6c-3.6,3.3-6.9,6.8-10.3,10.2c-4.6,4.7-9.9,4.2-15.3-1.4c-5.3-5.4-5.7-10.2-1.1-14.9
		c2.6-2.6,5-5.5,7.9-7.8c4.2-3.2,5-6.2,0.2-9.5c-3.9,0-7.6,0-11.5,0c-2.4,1.7-5.3,1.4-8,1.9C80.3,7.5,69.9,20,70,33.8
		c0,2.6,0.5,5.1,0.4,7.5c-0.3,6.5-8,12.2-11.6,8.5C50.5,41.8,40,35.3,36.3,23.3c-0.4-1.7-1.1-3.3-2.6-4.4c-5.8-4.1-11.4-8.6-18-11.5
		c-3.9-1.7-8.5,0-10.4,3.7c-0.8,1.5-1.2,3.2-2.2,4.6c0,1.1,0,2.3,0,3.4c4.7,3.9,6.8,9.7,10.3,14.4c1.5,1.9,2.6,4.6,5.4,4.8
		c5.9,0.4,9.3,4.3,12.9,8.1c3.9,4.1,7.9,8,11.8,12c8.4,8.4,8.4,8.3,0.2,16.7c-4.2,4.3-8.3,7.5-15.1,8.2C16.5,84.5,7.7,96.7,8.3,109
		c0.8,13.2,11,23.7,24.2,24.6c12.3,0.9,24.9-8.4,26.1-20.8c0.6-6.6,3.8-10.4,8-14.5c2.2-2.2,2.8-1.6,4.7,0.4
		c10.6,11.1,21.3,22,32.3,32.6c5,4.8,10.9,4.7,16.2,0.2c1.7-1.5,3.3-3.2,5-4.8c6.9-7.1,6.9-13-0.1-20
		C114.3,96.3,103.7,85.9,93.2,75.7z M29.5,31c-1.1,2.2-3,4.4-5.5,4.1c-2.6-0.9-4.6-0.9-5.8-2.7c-2.7-4.2-5.4-8.4-8.2-12.6
		c-1.1-1.6-0.8-2.8,0.5-4c1.3-1.2,2.5-1.7,4.1-0.6c4.3,2.9,8.8,5.5,13,8.6C30.1,25.5,30.8,28.5,29.5,31z M32.2,40.5
		c-0.9-0.9-2.5-1.7-1.6-3.3c0.4-0.9,1.3-1.4,2.2-2.2c1.2,1,2.3,1.7,3.2,2.7c6.6,6.6,13.1,13,19.7,19.7c1.2,1.3,3.6,2.5,1.3,4.6
		c-2.4,2.3-3.4-0.3-4.6-1.5C45.6,53.8,38.9,47.2,32.2,40.5z M58.1,100c-2.5,2.5-3.7,5-3.8,8.6c-0.1,11.5-9.7,20.6-21,20.4
		c-11.3-0.2-20.6-9.8-20.6-21.1c0-11.2,8.8-20.4,20.2-20.5c3.7,0,6.1-1.2,8.6-3.7C53,72.1,64.5,60.7,76,49.2c1.9-1.9,3.9-3.7,2.8-7
		C73.3,25.3,83,16.8,96.6,11c4.8-2,7.9-2.4,12.6-1.9c-3.4,6.4-11.8,8.5-11.8,16.4c0,4.7,2.3,9,5.6,12.4c4.4,4.4,9.7,8,15.9,6.4
		c5.8-1.5,8.5-8.1,13.6-11.4c3.3,17.6-13.9,34.7-30.6,30.6c-4-1-6.8-0.5-9.8,2.6C80.9,77.4,69.5,88.7,58.1,100z M114.4,129.5
		c-4.2,2.5-7.1-1-9.9-3.7c-8.8-8.8-17.8-17.8-26.6-26.6c-5.3-5.4-5.4-6.7-0.1-11.7c10.4-10.2,8.6-12.9,21.2-0.1
		c7.4,7.5,15,15.1,22.5,22.5c1.8,1.8,3.7,3.8,3.8,7.6C123.7,122.8,119.2,126.5,114.4,129.5z"/>
	<path class="st1" d="M106.7,53.9c-0.3,0.5-0.6,1.3-1.2,1.7c-1.1,0.8-2.3,0.2-3.1-0.5C97.3,50,92.1,44.8,87,39.6
		c-1-1-1.6-2.3-0.4-3.6c1-1,2.2-1,3.1-0.1c5.5,5.4,10.9,10.8,16.3,16.3C106.3,52.5,106.4,53.2,106.7,53.9z"/>
	<path class="st2" d="M73.8,63.2c2.2,1.2,4.5,2.6,4.8,5.6c0.1,1.3-1,2.4-2.3,1.9c-2.7-0.9-4.7-2.7-5.2-5.5
		C71,64.1,72.2,63.3,73.8,63.2z"/>
	<path class="st3" d="M65.6,71.4c2.2,1.3,4.6,2.6,4.8,5.7c0.1,1.3-1.2,2.3-2.4,1.8c-2.6-1-4.7-2.7-5.1-5.7
		C62.8,72.1,64.1,71.4,65.6,71.4z"/>
	<path class="st3" d="M62.4,84.9c-0.3,1.5-1.1,2.7-2.3,2.4c-2.7-0.8-4.7-2.6-5.4-5.5c-0.2-1.3,1-2.4,2.3-2
		C59.8,80.3,61.4,82.5,62.4,84.9z"/>
	<path class="st4" d="M86.9,60.2c-0.2,1.6-1.1,2.6-2.3,2.3c-2.7-0.8-4.7-2.6-5.2-5.4c-0.2-1.3,1-2.3,2.3-1.9
		C84.4,55.8,86.2,57.8,86.9,60.2z"/>
	<path class="st5" d="M49.1,87.8c2.3,1.4,4.7,2.7,4.8,5.8c0,1.2-1.3,2.3-2.5,1.8c-2.5-1.1-4.8-2.7-5.1-5.7
		C46.4,88.4,47.7,87.9,49.1,87.8z"/>
	<path class="st6" d="M110.6,119.9c-0.3,0.5-0.5,1.4-1.1,1.8c-1.1,0.9-2.3,0.3-3.1-0.5c-7.4-7.3-14.8-14.6-22.1-22.1
		c-1.1-1.1-1.4-2.4-0.2-3.6c1.1-1.1,2.3-0.8,3.1,0.1c7.5,7.4,15.1,15,22.5,22.5C110.2,118.5,110.3,119.1,110.6,119.9z"/>
	<path class="st7" d="M91.4,88.4c1.9-0.1,2.9,1,3.9,1.9c6.6,6.6,13.1,13,19.6,19.6c1.3,1.3,3.4,2.8,1.4,4.7c-2,1.9-3.4-0.3-4.7-1.6
		c-6.6-6.5-13.1-13-19.6-19.6c-1.1-1.1-2.5-2.2-1.7-3.9C90.5,89.1,91.2,88.7,91.4,88.4z"/>
	<path class="st8" d="M35.8,95.7c-8.3,0.1-14.5,6.5-14.2,14.5c0.1,3,7.5,10.3,10.6,10.3c8.2-0.1,14.4-6.5,14.2-14.5
		C46.2,102.9,38.8,95.7,35.8,95.7z M32.6,115.4c-2.8-1-5.7-2.9-5.9-6.7c-0.3-4.4,3.3-8.2,7.9-7.9c3.8,0.2,6.4,2.9,6.6,6.6
		C41.5,112,37.8,115.4,32.6,115.4z"/>
</g>
</svg>
