<?xml version="1.0" encoding="utf-8"?>
<!-- Generator: Adobe Illustrator 25.0.0, SVG Export Plug-In . SVG Version: 6.00 Build 0)  -->
<svg version="1.1" id="Слой_1" xmlns="http://www.w3.org/2000/svg" xmlns:xlink="http://www.w3.org/1999/xlink" x="0px" y="0px"
	 viewBox="0 0 141.7 141.7" style="enable-background:new 0 0 141.7 141.7;" xml:space="preserve">
<style type="text/css">
	.st0{fill:#060606;}
	.st1{fill:#050505;}
</style>
<g>
	<path class="st0" d="M81,129.7c0.1,0,0.2-0.1,0.3-0.1c3.4-4.3,8.5-6.3,12.6-9.6c14.6-11.5,29.3-22.6,44-33.8c0-0.1,0.1-0.2,0.1-0.3
		c0-2.4,0-4.9,0-7.3c-6.4-9.8-10.7-10.7-20.9-4.5c-7.9,4.8-15.8,9.6-23.6,14.6c-3.3,2.2-6.1,2.8-10,0.9c-8.1-3.9-16.9-6.5-24.7-10.9
		c-18.9-10.8-35.7-3.3-52.7,4.7c-1.6,0.8-3,2-2.2,4c0.8,2,2.7,1.9,4.3,1.3c4.9-1.9,9.9-3.9,14.8-6.1c8.1-3.6,16.4-5.2,24.8-1.8
		c11.7,4.7,23.3,9.8,34.9,14.9c2.6,1.2,6,2.5,4.8,6.2c-1.3,4.1-4.7,3.4-7.9,2.4c-7.9-2.4-15.9-4.6-23.8-7c-2.3-0.6-4.6-1.2-5.3,1.8
		c-0.6,2.5,1.8,3.1,3.6,3.7c8.8,2.7,17.6,5.6,26.6,7.8c7.4,1.8,13.3-3,12.9-10.6c-0.2-3.6,1-5.2,3.8-6.8c7.9-4.7,15.7-9.6,23.6-14.5
		c3.2-1.9,6.6-4.4,9.6-0.2c3.2,4.3-0.5,6.6-3.4,8.8c-14,10.6-28,21.2-41.9,31.8c-4.6,3.6-9.4,4.4-15,2.3c-9.4-3.5-19-6.2-28.2-10.1
		c-11.8-5-22.3-3.5-31.8,5c-2.5,2.3-8.6,3.9-6,7.6c3.4,4.7,6.7-1.2,9.4-3.1c6.4-4.4,12.5-8.6,20.8-5.7c11.2,4,22.5,7.9,33.7,11.9
		c1.4,0.5,2.9,0.9,2.6,2.9C74.2,129.9,77.6,129.9,81,129.7z"/>
	<path class="st1" d="M118.7,47.2c-3.4-7.8-6.8-15.6-10.2-23.4c-3.2-7.3-18.2-16.5-25.8-14.3c-5.4,1.5-5.8-2.6-8.5-4.1
		c-3.9-2-3.1,6.8-8.1,4.5c-0.7-0.3-1.4-0.5-2.1-0.6c-5.7-0.7-21.9,6-23.7,10c-4.2,9.6-8.2,19.3-12.5,28.8c-2.3,5.1-0.3,8.9,3.5,12.2
		c5.8,5,16.4,5.7,23.4,1.5c4.2-2.5,7.3-5.9,6.7-11.2c-0.2-1.6-1.2-3.1-1.9-4.7c-2.6-6-5.4-12-7.8-18.1c-1-2.6-4.3-5.9-1.5-7.7
		c3.5-2.5,7.7-5.3,12.6-4.8c2.2,0.2,4,1.6,4.7,4c1.6,5.5,3.5,10.8,3.2,16.8c-0.5,11.6-0.1,23.3-0.1,35c0,2,0,4.4,2.5,4.6
		c3,0.2,3.3-2.3,3.3-4.6c0-7.1,0-14.1,0-22.1c0.6-9.1-1.6-19.3,2.7-29.1c2.2-5.1,5.6-6.2,9.7-3.7c3.5,2.1,11.6,1.1,7.2,9.7
		c-3.6,6.9-6.2,14.3-9.4,21.4c-1.2,2.8-1.9,5.5-0.4,8.4c3.5,6.6,9.5,8.7,16.5,8.7s13-2.2,16.5-8.8C120.7,52.6,119.9,50,118.7,47.2z
		 M34.3,53.2c6.7,0,13,0,20.6,0C47.4,60.5,39.6,60.3,34.3,53.2z M49.8,37.9c4,9.1,4,9.1-5.7,9.1c-9.4,0-9.4,0-5.6-8.6
		c1.5-3.8,3.2-7.5,5.7-13C46.7,30.9,48.2,34.4,49.8,37.9z M99.4,32.7c0.6-1.8,1.6-3.5,3.3-7.2c3.4,7.6,6.1,13.8,9.3,21.1
		c-6.7,0.2-13.6,2.7-17-1C92.6,43,97.8,37.1,99.4,32.7z M92.5,53.3c6.8-1,13.1-0.5,20.6-0.3C106.4,60.4,98.5,60.4,92.5,53.3z"/>
</g>
</svg>
