<?xml version="1.0" encoding="utf-8"?>
<!-- Generator: Adobe Illustrator 25.0.0, SVG Export Plug-In . SVG Version: 6.00 Build 0)  -->
<svg version="1.1" id="Слой_1" xmlns="http://www.w3.org/2000/svg" xmlns:xlink="http://www.w3.org/1999/xlink" x="0px" y="0px"
	 viewBox="0 0 141.7 141.7" style="enable-background:new 0 0 141.7 141.7;" xml:space="preserve">
<g>
	<path d="M127.1,7.2c7.7,5.7,7.8,6,4.4,15.4c-4,11.1-7.8,22.2-12.1,33.2c-1.4,3.6-0.8,5.7,2.2,8.2c5.2,4.4,7,10.5,5.4,16.9
		c-4.5,18.4-12.2,35.1-25.3,49.2c-4.5,4.9-9.2,6.4-16,5.2c-24.4-4.5-45.4-15-62-33.8c-0.9-1-1.7-2-2.4-3c-0.3-0.5-0.4-1.2-0.8-2.7
		c2-0.5,3.9-1.1,5.8-1.3c21.7-2.4,38-12.2,47-32.9c3.9-9.1,9.9-12.2,19.5-10.7c3.5,0.5,5-0.6,6.5-3.5c5.6-10.9,11.4-21.6,17.2-32.4
		c1.5-2.8,3.6-5.2,5.4-7.8C123.7,7.2,125.4,7.2,127.1,7.2z M52.6,117.4c12.4,10.2,19,9.8,29.9-1.9c1.9-2,3.4-4.5,5.4-6.4
		c1.3-1.3,3.3-1.9,5-2.8c-0.3,1.9,0.1,4.3-1,5.5c-4.4,5.4-9.3,10.5-15.4,17.4c6.9,0.1,14.2,2.5,18-0.1c10.5-7.3,16.3-18.7,21.1-30.3
		C100,91.6,85.2,84.7,70,77.7C59.7,90.3,46.1,96.8,30.3,99.5c9.2,14.5,17.2,16.1,29.9,6.3c2-1.6,3.7-3.7,5.8-5.1
		c1.5-1,3.5-1.3,5.3-1.9c-0.6,1.8-0.6,4.3-1.8,5.4C64.1,108.8,58.2,113.1,52.6,117.4z M79.1,62.4c14.1,6.6,27.9,13,42.2,19.7
		c1.7-8,0.2-13.2-5.4-16.1c-7.4-3.8-15.1-7-22.9-9.8C87.5,54.1,82.7,55.9,79.1,62.4z M113,58.8c5.2-14.3,10.1-27.9,14.9-41.6
		c0.4-1-1-2.7-1.6-4.1c-1.4,0.7-3.4,1-4,2.1c-6.9,12.5-13.5,25.1-20.6,38.2C105.6,55.3,108.8,56.8,113,58.8z M119.3,87.2
		c-14.4-6.8-28.4-13.4-44.1-20.8c0,3.7-0.9,7.1,0.1,7.8c4.4,2.9,9.3,5.1,14.1,7.3c6.8,3.2,13.9,5.8,20.5,9.3
		C115.4,93.6,117.9,93.1,119.3,87.2z"/>
	<path d="M35,53.9c7.8,0.2,14,6.9,13.7,14.8C48.4,76.3,42,82.2,34.4,82c-7.6-0.2-13.8-6.5-13.8-14C20.6,60.3,27.4,53.7,35,53.9z
		 M43.6,68.1c0-4.9-4-9.1-8.8-9.1c-4.8,0-9,4.1-9.1,8.9c-0.1,4.8,4,8.9,8.9,9C39.6,77,43.5,73.1,43.6,68.1z"/>
	<path d="M25.5,38.1c0.2,5.6-4.3,10.3-9.9,10.4c-5.5,0.1-10.4-4.4-10.5-9.9c-0.1-5.4,4.5-10.3,10-10.5C20.6,28,25.4,32.6,25.5,38.1z
		 M15.9,45.6c2.1-3.5,4.4-5.6,4.1-7.4c-0.3-1.9-3-3.3-4.7-5c-1.7,1.9-4.3,3.5-4.7,5.6C10.4,40.4,13.3,42.4,15.9,45.6z"/>
	<path d="M45.7,41.4c-3.4,2.1-5.5,4.5-7.2,4.2c-1.8-0.3-3.3-2.9-5-4.6c1.8-1.7,3.5-4.4,5.5-4.8C40.5,36,42.5,38.8,45.7,41.4z"/>
</g>
</svg>
