<?xml version="1.0" encoding="utf-8"?>
<!-- Generator: Adobe Illustrator 25.0.0, SVG Export Plug-In . SVG Version: 6.00 Build 0)  -->
<svg version="1.1" id="Слой_1" xmlns="http://www.w3.org/2000/svg" xmlns:xlink="http://www.w3.org/1999/xlink" x="0px" y="0px"
	 viewBox="0 0 141.7 141.7" style="enable-background:new 0 0 141.7 141.7;" xml:space="preserve">
<path d="M9.3,106.8c3.9-4.2,7.7-8.6,11.7-12.6c5.4-5.5,7.6-11.7,6.8-19.6c-0.4-4.7,1.6-9.6,2.7-14.3c0.7-3,1.5-6.1,2.2-9.1
	c-0.5-0.2-1.1-0.4-1.6-0.7c-1.3,2.7-2.6,5.3-3.8,8c-1.9,4.2-3.8,8.7-9.7,6.7c-5.1-1.7-5.8-5.8-4.1-12.1C16.6,41.7,23,35,35.3,34.3
	c4.4-0.2,8.8-1.6,11.8-2.2c0-5.2-0.9-10.6,0.4-15.4c0.7-2.8,4.8-5.4,8-6.5c6.3-2.4,13.5,2.3,15.3,9c2.1,7.9-2.8,14.1-13.5,16.5
	c3.1,4.8,5.9,9.6,9.1,14c0.9,1.2,3.2,1.8,4.8,1.7c2.1-0.1,4.2-2.1,6.1-1.7c3,0.6,7.2,1.8,8.2,4c1,2.2-0.3,7.7-2.2,8.7
	c-5.8,2.9-12.3,5-18.7,5.9c-2.6,0.3-5.8-3.4-9.2-5.5c-0.5,2-1.1,4.1-1.6,6.1c0.7,0.5,1,1,1.4,1c10.1,0.7,14,6.7,14.2,16.2
	c0.1,3.2,1.3,6.4,1.3,9.5c-0.1,4.6-1,9.1-1.5,13.9c0.3,0,2.1,0,4.4,0c0.2-3.9,0.5-7.9,0.8-12.4c5.8,0,11.3,0,17.3,0
	c0.2-4.4,0.4-8.1,0.6-12.7c5.7,0,11.3,0,17.4,0c0.2-4.6,0.4-8.3,0.6-12c11.3-3,22-1.4,22.4,3.9c-5.5,0-11,0-17.2,0
	c-0.2,4.5-0.4,8.4-0.6,12.9c-5.8,0-11.3,0-17.4,0c-0.2,4.4-0.4,8.1-0.6,12.7c-5.6,0-11.3,0-17.5,0c0,4.6,0,8.3,0,12.9
	c-6.2,0-11.9,0-17.9,0c-0.2,4.6-0.4,8.3-0.6,12.7c-5.7,0-11.1,0-17.3,0c-0.2,3.6-0.4,6.7-0.6,9.8c-5.4,0.2-6.2-2.8-4-14.6
	c5.3,0,10.8,0,16.3,0c0.7-5.1,1.3-9.6,1.8-12.9c-1.4-6.3-2.9-11.9-3.7-17.6c-0.5-4-1.9-6.2-6.1-6.7c-5-0.6-4.4,3.5-4.9,5.9
	c-2.3,11.9-12.3,17.6-20.1,24.8c-3.8,3.5-8.4,1.1-12.7-5.5C9.3,109.3,9.3,108.1,9.3,106.8z M20.3,61.8c2-4.9,3.5-8.6,5.1-12.2
	c1.3-3,10.3-7.1,11.7-5.1c1.4,2,1.1,5.7,0.6,8.5c-1.2,5.8-3.1,11.5-4.7,17.3c-1.3,4.9,0.2,7.8,5.6,8.5c4.4,0.6,8.8,1.7,13.3,2.3
	c3.6,0.4,5.2,2.2,5.5,5.8c0.4,4.5,1,8.9,2,13.3c0.3,1.5,2.2,2.6,3.3,3.9c1-1.6,3-3.2,2.9-4.7c-0.1-4.2-1.5-8.5-1.5-12.7
	c0-7.9-3.5-11.7-11.4-11.9c-3-0.1-5.7-1.2-4.7-5.1c1.2-5,2.4-10,3.9-14.9c0.9-3.1,2.9-3.5,5.1-0.9c1.1,1.3,2.2,2.7,2.9,4.2
	c2.5,5.3,6.2,6.5,11.4,3.9c1.5-0.8,3.4-0.8,4.8-1.7c1.8-1.1,3.3-2.7,4.9-4.1c-2-0.2-4.5-1.2-6.1-0.4c-6.8,3.4-11.3,1.8-14.2-5.1
	c-0.5-1.2-1.5-2.1-2.1-3.2C52.9,36.5,47.9,36.5,37.5,39c-2.3,0.6-4.6,1.1-6.9,1.6c-6.3,1.5-13.6,11.5-13,18
	C17.7,59.3,18.6,59.9,20.3,61.8z M36.4,82.9c-1.6,1.3-3.6,2.4-4.8,4c-2.6,3.5-4.6,7.5-7.3,10.9c-2.5,3.2-5.8,5.7-8.3,8.8
	c-0.7,0.9-0.5,3.2,0.2,4.4c0.4,0.6,3.2,0.9,3.8,0.2C27.5,103.5,38.3,97.9,36.4,82.9z M58.2,29.9c4.7-0.4,7.7-2.8,7.7-7.6
	c0-4.5-2.6-7.3-7-7.6c-4.7-0.3-7.8,2.5-8,7.2C50.6,26.7,53.6,29.3,58.2,29.9z"/>
</svg>
