<?xml version="1.0" encoding="utf-8"?>
<!-- Generator: Adobe Illustrator 25.0.0, SVG Export Plug-In . SVG Version: 6.00 Build 0)  -->
<svg version="1.1" id="Слой_1" xmlns="http://www.w3.org/2000/svg" xmlns:xlink="http://www.w3.org/1999/xlink" x="0px" y="0px"
	 viewBox="0 0 141.7 141.7" style="enable-background:new 0 0 141.7 141.7;" xml:space="preserve">
<g>
	<path d="M8.2,117.4c0-31.4,0-62.8,0-94.2c2.4-3,5.6-4.1,9.5-3.8c3.4,0.3,6.9-0.1,10.3,0.1c3.1,0.2,7.1-1.8,8.5,3.3
		c0.1,0.4,1.8,0.5,2.7,0.5c3.1,0.1,6.2,0.1,9.3,0c1.1-0.1,2.1-0.9,3.1-1.4c1.6-0.8,3.1-2.3,4.6-2.3c7-0.3,14.1-0.3,21.1,0
		c3.6,0.2,8.4-2.2,10.3,3.4c0.1,0.3,0.9,0.5,1.3,0.3c4.9-1.4,11.1,3.4,14.9-3.2c0.3-0.5,1.8-0.6,2.7-0.6c5.6-0.1,11.1-0.1,16.7,0
		c4.8,0.1,6.8,2.1,6.9,7c0.1,29.4,0.1,58.8,0,88.2c0,4.8-2,6.6-7,6.7c-5.1,0.1-10.2-0.2-15.2,0.1c-3.6,0.2-5.1-0.9-5.4-4.8
		c-0.7-8.3-7.6-14.4-15.5-14.1c0,4.5-0.2,9.1,0.1,13.6c0.3,4.1-1.2,5.3-5.3,5.3c-21.6-0.2-43.2-0.2-64.8,0
		C13.2,121.6,10.2,120.6,8.2,117.4z M87.3,70.7c-0.1,1.5,0,2.8-0.4,4c-0.4,1.2-1.2,2.2-1.9,3.3c-0.7-1.1-1.8-2.2-1.9-3.4
		c-0.2-4.4-0.2-8.8,0-13.2c0-0.8,1.2-1.6,1.8-2.5c0.6,0.8,1.6,1.5,1.9,2.4c0.4,1.5,0.3,3.1,0.4,4.8c10.5,0,20.7,0,30.9,0
		c0-11.7,0-23.1,0-35c-3,0-5.8,0-8.5,0c-1.8,0-4.7,0.5-5.2-0.4c-3.5-6.1-9.2-2.7-13.8-3.5c-1-0.2-3,0.2-3.1,0.6
		c-1,4.8-4.8,3-7.5,3.2c-2.7,0.2-5.4,0-8.7,0c0,11.9-0.1,23.1,0.1,34.3c0,3.4-0.8,4.8-4.5,5.1c-8.4,0.8-14,6.9-14.7,15.5
		c4.9,0,9.8,0.1,14.7,0c3.4-0.1,4.7,1.2,4.6,4.6c-0.2,6.2-0.1,12.3-0.1,18.7c4.2,0,7.8,0,11.8,0c0-2.4,0.2-4.6,0-6.6
		c-0.4-4.1,1.6-5.2,5.3-4.6c6.1,1,11,3.8,14.7,8.9c0.8,1.1,2,2.5,3.2,2.6c4,0.3,8,0.1,11.9,0.1c0-13.4,0-26.1,0-38.9
		C107.7,70.7,97.6,70.7,87.3,70.7z M67,66.3c0-11.9,0-23.2,0-35.1c-3,0-5.8,0-8.5,0c-1.8,0-4.7,0.5-5.2-0.4
		c-3.5-6.1-9.2-2.7-13.8-3.5c-1-0.2-3,0.2-3.1,0.6c-1,4.8-4.8,2.9-7.5,3.2c-2.7,0.2-5.4,0-8.3,0c0,26.5,0,52.3,0,78.2
		c15.7,0,31,0,46.4,0c0-6.5,0-12.8,0-19.3c-4.8,0-9.2,0-13.6,0c-5.7,0-6.5-1-5.2-6.7C50.4,73.4,57.2,68.2,67,66.3z M82.7,117.4
		c1.1-4.3-1.9-3.7-4.1-3.7c-19.1,0-38.3,0-57.4,0c-2.6,0-4.9,0.1-4.9-3.6c0.1-26.3,0-52.6,0-78.9c0-2.7,1.1-3.9,3.8-3.8
		c3.9,0.1,7.8,0,11.6,0c0.2-0.6,0.5-1.1,0.7-1.7c-1.1-0.8-2.2-2.1-3.3-2.2c-3.9-0.3-7.9,0.1-11.8-0.2c-3.9-0.2-5.1,1.2-5.1,5.1
		c0.1,28.1,0.1,56.2,0,84.3c0,3.9,1.4,5,5.1,5c20.3-0.1,40.6-0.1,60.8-0.1C79.7,117.6,81.1,117.4,82.7,117.4z M106.2,25.6
		c0.4,0.6,0.7,1.1,1.1,1.7c3.3,0,6.5,0.2,9.8-0.1c4.1-0.3,5.4,1.2,5.3,5.3c-0.2,25.3-0.1,50.7,0,76c0,3.7-0.9,5.6-5,5.1
		c-2.1-0.2-4.3-0.3-6.4,0c-1.6,0.3-3,1.3-4.5,2c1.4,0.6,2.8,1.7,4.3,1.8c3.4,0.3,6.9-0.2,10.3,0.1c4.3,0.4,5.2-1.5,5.2-5.4
		c-0.2-14.2-0.1-28.4-0.1-42.7c0-13.7-0.1-27.5,0.1-41.2c0.1-3.9-1.2-5.3-5.1-5.1c-3.9,0.3-7.9-0.1-11.8,0.2
		C108.4,23.5,107.3,24.8,106.2,25.6z M82.3,27.3c0.4-0.5,0.8-1.1,1.2-1.6c-1.1-0.8-2.1-2.2-3.2-2.2c-7.4-0.2-14.7-0.2-22.1,0
		c-0.9,0-1.7,1.3-2.6,2c0.9,0.6,1.8,1.8,2.7,1.8C66.3,27.4,74.3,27.3,82.3,27.3z"/>
	<path d="M36.1,44c-1.7-1.2-2.8-2.1-3.9-2.9c1.3-0.7,2.5-1.8,3.8-1.8c1.1-0.1,2.3,1,3.5,1.6C38.5,41.8,37.5,42.7,36.1,44z"/>
	<path d="M35.8,53.6c-1.4-1-2.5-1.8-3.7-2.6c1.3-0.7,2.5-1.9,3.8-1.9c1.2,0,2.4,1.3,3.6,2C38.4,51.9,37.4,52.6,35.8,53.6z"/>
	<path d="M36.1,57.8c1.4,1.3,2.4,2.3,3.4,3.2c-1.2,0.5-2.4,1.6-3.6,1.5c-1.3-0.1-2.5-1.2-3.8-1.8C33.3,59.9,34.4,59.1,36.1,57.8z"/>
	<path d="M35.8,73.2c-1.5-1-2.6-1.8-3.7-2.5c1.4-0.7,2.7-1.9,4.1-2c1-0.1,2.1,1.2,3.2,1.9C38.3,71.4,37.2,72.2,35.8,73.2z"/>
	<path d="M35.8,83.1c-1.5-1-2.6-1.8-3.7-2.5c1.4-0.7,2.7-1.9,4.1-2c1-0.1,2.1,1.2,3.2,1.9C38.3,81.3,37.2,82.1,35.8,83.1z"/>
	<path d="M36,93.1c-1.6-1.2-2.8-2.1-3.9-2.9c1.3-0.7,2.5-1.7,3.8-1.8c1.1-0.1,2.3,1,3.5,1.6C38.5,90.9,37.5,91.8,36,93.1z"/>
	<path d="M35.9,102.9c-1.6-1.3-2.6-2.1-3.7-3c1.3-0.6,2.6-1.7,3.9-1.7c1.1,0,2.3,1.1,3.4,1.7C38.4,100.8,37.4,101.6,35.9,102.9z"/>
</g>
</svg>
