<?xml version="1.0" encoding="utf-8"?>
<!-- Generator: Adobe Illustrator 25.0.0, SVG Export Plug-In . SVG Version: 6.00 Build 0)  -->
<svg version="1.1" id="Слой_1" xmlns="http://www.w3.org/2000/svg" xmlns:xlink="http://www.w3.org/1999/xlink" x="0px" y="0px"
	 viewBox="0 0 141.7 141.7" style="enable-background:new 0 0 141.7 141.7;" xml:space="preserve">
<path d="M96.5,102.4c-5.1-2.7-10.2-5.5-15.5-8c-1.2-0.6-3,0.4-4.4,0c-2.2-0.7-5.4-1.3-6.3-2.9c-3.7-7.1-11.1-7.5-16.7-11
	c-0.5,0.4-0.9,0.7-1.4,1.1c0.8,1.9,1.1,4.3,2.5,5.7c11.7,12.5,8.4,28,8.1,42.7c-0.1,2.3-4,5.7-6.8,6.4c-3.7,1-6.6-2-7.3-5.8
	c-1.2-6.1-2.4-12.3-2.8-18.4c-0.4-7.1-4.6-11.1-10.2-15.2c-4.4,9.7-8.6,19.1-12.8,28.4c-0.8,1.8-1.7,3.5-2.4,5.3
	c-1.8,4.4-4.6,7.7-9.7,5.9c-5.1-1.8-5.3-6-4-10.6c2.8-9.7,5.4-19.5,8.1-29.2c2.5-9.2,5.1-18.4,7.6-27.6c1.3-4.9,0-6.7-4.8-5.9
	c-3.7,0.6-7.3,0.5-8.2-3.3c-0.6-2.6,0.9-6,2.2-8.8c0.9-2,3-3.5,4.6-5.2c15.6-17,10.1-14.4,32.8-14.2c4.2,0,8.4,3,12.5,5
	c11.1,5.3,15.5,14.6,16,26.7c0.3,7.3,2,14.6,3.4,21.9c0.4,1.8,1.7,4,3.2,4.9c5,3,10.3,5.4,15.6,8.2c1.2-1.4,2.2-2.5,3.3-3.6
	c4.4-4.6,10.7-4.6,14,0.8c7,11.2,13.4,22.8,20,34.3c1.7,3,0.2,4.5-2.8,4.5c-20,0-40.1,0-60.1,0c-3.1,0-4.2-1.6-3.2-4.6
	c1.7-5.2,3.3-10.4,5.3-15.5c2.4-6.1,7.6-7.7,13.7-8c2.3-0.1,4.6-1.2,6.9-1.8C96.6,104,96.6,103.2,96.5,102.4z M74.6,89.8
	c0.6-0.1,1.1-0.2,1.7-0.3c-0.1-1.8,0-3.6-0.3-5.3c-1.2-7.9-3-15.7-3.6-23.6c-0.6-8.3-4-14.2-11.2-18.2c-4.1-2.3-7.3-5.6-12.7-6.2
	c-12.2-1.3-21.5,2.2-28.3,12.6c-1.5,2.3-3.7,4-5.4,6.1c-0.7,0.9-0.9,2.2-1.3,3.3c0.4,0.4,0.7,0.7,1.1,1.1c1.4-1,3-1.7,4.3-2.9
	c3.8-3.6,7-8.1,11.3-10.8c2.8-1.7,7.2-1,10.8-1.3c-0.8,2.5-1.3,5.2-2.5,7.5c-2.1,3.9-4.7,7.4-7.5,11.7c7.2,3.7,13.9,7.1,20.9,10.7
	c2.7-4.4,5-8.4,7.5-12.3c1-1.5,2.6-2.6,3.9-3.9c1.1,1.7,2.6,3.2,3.2,5.1c1.9,6.1,3.5,12.3,5.3,18.5C72.6,84.3,73.6,87,74.6,89.8z
	 M28.3,67.3c-0.9,2.8-1.6,4.7-2.1,6.5c-4.7,16.9-9.5,33.7-14,50.6c-0.6,2.3,0.1,4.9,0.2,7.4c1.7-1.8,3.9-3.4,4.9-5.5
	c5-10.6,9.6-21.3,14.5-31.9c0.7-1.5,4-3.6,4.1-3.5c4.6,5,10.5,9.6,13.1,15.6c2.9,6.6,2.6,14.5,3.9,21.7c0.3,1.4,1.8,2.6,2.8,3.9
	c0.9-1.1,2.6-2.2,2.6-3.3c-0.3-13.1,3.2-27-7.3-38.3C48,87.1,45.6,83,49.1,78C42.1,74.4,35.5,71,28.3,67.3z M131.5,129.8
	c-5.2-9-9.8-17-14.5-25c-6.4-11-7.4-11.2-14.5-0.8c-3.4,5-7,8-13.6,7.7c-2.8-0.1-6.7,2.3-8.3,4.8c-2.4,3.8-3.2,8.5-4.8,13.3
	C94.6,129.8,112.4,129.8,131.5,129.8z M56.1,76.3c3.8,1.9,6.7,3.4,11,5.6c-1.7-6-3-10.3-4.6-16.1C59.9,70,58.2,72.8,56.1,76.3z
	 M23.6,59.2c4,1.4,7.2-2,10.5-11.1C30.4,52.1,27.2,55.5,23.6,59.2z"/>
<path d="M58.6,20.1c0-7.6,6-13.8,13.6-13.9c7.8-0.1,14.3,6.2,14.3,13.9c0,7.6-6.7,14.2-14.3,14C64.8,34,58.7,27.7,58.6,20.1z
	 M72.4,29.4c4.9,0.1,9.4-4.2,9.5-9.2c0.1-5-4.1-9.3-9.2-9.4c-5.2-0.1-9.3,3.9-9.4,9.1C63.2,25,67.3,29.4,72.4,29.4z"/>
<path d="M94.7,120.4c-1.5,1.9-2.5,3.2-3.6,4.5c-0.7-1.5-2-3-2.1-4.6c-0.1-1.3,1.2-2.7,1.9-4.1C92.1,117.5,93.2,118.7,94.7,120.4z"/>
<path d="M99.8,120.2c1.3-1.6,2.2-2.7,3.1-3.9c0.8,1.5,2.2,3,2.2,4.4c0,1.4-1.6,2.8-2.4,4.3C101.8,123.5,100.9,122,99.8,120.2z"/>
<path d="M118.1,120.7c-1.6,1.8-2.6,3-3.7,4.3c-0.7-1.6-1.9-3.1-1.9-4.7c0-1.3,1.3-2.7,2-4C115.6,117.5,116.6,118.8,118.1,120.7z"/>
</svg>
